<?xml version="1.0" encoding="UTF-8"?>
<svg width="22px" height="15px" viewBox="0 0 22 15" version="1.1" xmlns="http://www.w3.org/2000/svg" xmlns:xlink="http://www.w3.org/1999/xlink">
    <!-- Generator: Sketch 51.1 (57501) - http://www.bohemiancoding.com/sketch -->
    <title>109617</title>
    <desc>Created with Sketch.</desc>
    <defs></defs>
    <g id="design" stroke="none" stroke-width="1" fill="none" fill-rule="evenodd">
        <g id="homepage" transform="translate(-442.000000, -328.000000)" fill="#FFFFFF" fill-rule="nonzero">
            <g id="Group-10" transform="translate(232.000000, 306.000000)">
                <g id="109617" transform="translate(210.000000, 22.000000)">
                    <path d="M14.8145443,0.22057628 C14.5148301,-0.0735254268 14.0160051,-0.0735254268 13.7058114,0.22057628 C13.4060972,0.504742119 13.4060972,0.977689459 13.7058114,1.26119291 L19.3277231,6.59145515 L0.776182915,6.59145515 C0.343728168,6.59211754 0,6.91801403 0,7.3280342 C0,7.73805438 0.343728168,8.07454912 0.776182915,8.07454912 L19.3277231,8.07454912 L13.7058114,13.3948755 C13.4060972,13.6889772 13.4060972,14.1625869 13.7058114,14.4460904 C14.0160051,14.7401921 14.5155287,14.7401921 14.8145443,14.4460904 L21.7673547,7.85397284 C22.0775484,7.569807 22.0775484,7.09685966 21.7673547,6.81335622 L14.8145443,0.22057628 Z" id="Shape"></path>
                </g>
            </g>
        </g>
    </g>
</svg>