<?xml version="1.0" encoding="UTF-8"?>
<svg width="50px" height="50px" viewBox="0 0 50 50" version="1.1" xmlns="http://www.w3.org/2000/svg" xmlns:xlink="http://www.w3.org/1999/xlink">
    <!-- Generator: Sketch 51.1 (57501) - http://www.bohemiancoding.com/sketch -->
    <title>117999</title>
    <desc>Created with Sketch.</desc>
    <defs></defs>
    <g id="design" stroke="none" stroke-width="1" fill="none" fill-rule="evenodd">
        <g id="find_work_page" transform="translate(-695.000000, -1607.000000)" fill="#FFFFFF" fill-rule="nonzero">
            <g id="117999" transform="translate(695.000000, 1607.000000)">
                <path d="M35.0204082,24.122449 L21.2346939,14.6938776 C20.8061224,14.377551 19.6632653,14.377551 19.5714286,15.5714286 L19.5714286,34.4285714 C19.6734694,35.622449 20.8367347,35.6428571 21.2346939,35.3061224 L35.0204082,25.877551 C35.377551,25.6632653 35.8673469,24.7857143 35.0204082,24.122449 Z M21.7040816,32.4183673 L21.7040816,17.5816327 L32.5306122,25 L21.7040816,32.4183673 Z" id="Shape"></path>
                <path d="M25,0 C11.2142857,0 0,11.2142857 0,25 C0,38.7857143 11.2142857,50 25,50 C38.7857143,50 50,38.7857143 50,25 C50,11.2142857 38.7857143,0 25,0 Z M25,47.8673469 C12.3877551,47.8673469 2.13265306,37.6122449 2.13265306,25 C2.13265306,12.3877551 12.3877551,2.13265306 25,2.13265306 C37.6122449,2.13265306 47.8673469,12.3877551 47.8673469,25 C47.8673469,37.6122449 37.6122449,47.8673469 25,47.8673469 Z" id="Shape"></path>
            </g>
        </g>
    </g>
</svg>