<?xml version="1.0" encoding="UTF-8"?>
<svg width="51px" height="51px" viewBox="0 0 51 51" version="1.1" xmlns="http://www.w3.org/2000/svg" xmlns:xlink="http://www.w3.org/1999/xlink">
    <!-- Generator: Sketch 51.1 (57501) - http://www.bohemiancoding.com/sketch -->
    <title>Group 5</title>
    <desc>Created with Sketch.</desc>
    <defs></defs>
    <g id="design" stroke="none" stroke-width="1" fill="none" fill-rule="evenodd">
        <g id="homepage" transform="translate(-686.000000, -3378.000000)">
            <g id="Group-5" transform="translate(686.000000, 3378.000000)">
                <circle id="Oval-5" fill="#F36646" cx="25.5" cy="25.5" r="25.5"></circle>
                <path d="M15,28.7701149 C15,24.8045977 17.3030303,21.2413793 20.6363636,19 L23.5454545,21.183908 C21.6060606,22.2758621 19.5454545,24.6321839 19.1818182,26.5862069 C19.3030303,26.5287356 19.7878788,26.4712644 20.2121212,26.4712644 C22.2121212,26.4712644 23.7878788,27.9655172 23.7878788,30.091954 C23.7878788,32.2183908 21.969697,34 19.6666667,34 C17.1818182,34 15,32.1034483 15,28.7701149 Z M26.2121212,28.7701149 C26.2121212,24.8045977 28.5151515,21.2413793 31.8484848,19 L34.7575758,21.183908 C32.8181818,22.2758621 30.7575758,24.6321839 30.3939394,26.5862069 C30.5151515,26.5287356 31,26.4712644 31.4242424,26.4712644 C33.4242424,26.4712644 35,27.9655172 35,30.091954 C35,32.2183908 33.1818182,34 30.8787879,34 C28.3939394,34 26.2121212,32.1034483 26.2121212,28.7701149 Z" id="“" fill="#FFFFFF"></path>
            </g>
        </g>
    </g>
</svg>