<?xml version="1.0" encoding="UTF-8"?>
<svg width="60px" height="58px" viewBox="0 0 60 58" version="1.1" xmlns="http://www.w3.org/2000/svg" xmlns:xlink="http://www.w3.org/1999/xlink">
    <!-- Generator: Sketch 51.1 (57501) - http://www.bohemiancoding.com/sketch -->
    <title>90603</title>
    <desc>Created with Sketch.</desc>
    <defs></defs>
    <g id="design" stroke="none" stroke-width="1" fill="none" fill-rule="evenodd">
        <g id="homepage" transform="translate(-843.000000, -1605.000000)" fill-rule="nonzero">
            <g id="Group-19" transform="translate(729.000000, 1561.000000)">
                <g id="90603" transform="translate(114.000000, 44.000000)">
                    <path d="M12.2503279,12.6172131 C15.7326639,12.6172131 18.5565984,9.79512295 18.5565984,6.31217213 C18.5565984,2.82811475 15.7326639,0.00577868852 12.2503279,0.00577868852 C8.76540984,0.00577868852 5.94393443,2.82811475 5.94393443,6.31217213 C5.94405738,9.79512295 8.76540984,12.6172131 12.2503279,12.6172131 Z" id="XMLID_139_" fill="#F15D3B"></path>
                    <path d="M16.8122951,43.8879098 L4.31495902,43.8879098 C4.31495902,37.4065574 4.31495902,31.0265164 4.31495902,24.5588115 C4.31495902,23.367541 3.34770492,22.4012705 2.15790984,22.4012705 C0.967131148,22.4012705 0,23.3676639 0,24.5588115 C0,44.9969262 0,36.5763934 0,55.3626639 C0,56.5541803 0.967131148,57.5202049 2.15790984,57.5202049 C3.34782787,57.5202049 4.31495902,56.5541803 4.31495902,55.3626639 L4.31495902,48.2029918 L14.6542623,48.2029918 L14.6542623,55.3626639 C14.6542623,56.5541803 15.6190574,57.5202049 16.8122951,57.5202049 C18.0045492,57.5202049 18.9692213,56.5541803 18.9692213,55.3626639 L18.9692213,46.0454508 C18.9692213,44.8540574 18.0045492,43.8879098 16.8122951,43.8879098 Z" id="XMLID_138_" fill="#1E2362"></path>
                    <path d="M57.8273361,34.6160656 L30.8808197,34.6160656 C29.690041,34.6160656 28.7227869,35.5819672 28.7227869,36.7736066 C28.7227869,37.9652459 29.690041,38.9311475 30.8808197,38.9311475 L42.197582,38.9311475 L42.197582,53.2052459 L38.6237705,53.2052459 C37.4313934,53.2052459 36.4667213,54.1710246 36.4667213,55.3626639 C36.4667213,56.5541803 37.4315164,57.5202049 38.6237705,57.5202049 L50.0864754,57.5202049 C51.2765164,57.5202049 52.2436475,56.5541803 52.2436475,55.3626639 C52.2436475,54.1710246 51.2765164,53.2052459 50.0864754,53.2052459 L46.5126639,53.2052459 L46.5126639,38.9311475 L57.8272131,38.9311475 C59.0203279,38.9311475 59.985123,37.965123 59.985123,36.7736066 C59.985123,35.5820902 59.0203279,34.6160656 57.8273361,34.6160656 Z" id="XMLID_137_" fill="#1E2362"></path>
                    <path d="M23.8245492,35.6745492 L18.8411066,35.6745492 L18.8411066,30.4693033 C18.3291393,30.1952459 17.865123,29.8163115 17.5133607,29.3198361 L10.7143033,19.7655738 L19.0118852,27.7669672 C19.5135246,28.2517623 20.1858197,28.522623 20.8828279,28.522623 L26.1563115,28.522623 L29.1844672,28.522623 C28.9144672,28.8836066 28.7227869,29.3095082 28.7227869,29.7962705 C28.7227869,30.9879098 29.690041,31.9538115 30.8808197,31.9538115 L43.1288115,31.9538115 C44.0070492,31.9538115 44.7979918,31.4205738 45.1279918,30.6071311 L50.522459,17.309877 C50.9712295,16.2056557 50.4383607,14.9468852 49.3342623,14.4992213 C48.227459,14.0492213 46.9718852,14.5822131 46.5232377,15.687541 L41.6752869,27.6383607 L33.672541,27.6383607 C34.112459,27.1578689 34.3970902,26.5293443 34.3970902,25.8253279 C34.3970902,25.2639344 34.1862295,24.7720082 33.8913934,24.3402049 C33.4073361,23.6264754 32.6293033,23.1285246 31.7005328,23.1285246 L21.9719262,23.1285246 L14.4604918,15.8822951 L18.7883607,18.7321721 C18.5192213,15.9856967 16.2281557,13.8309836 13.4115984,13.8309836 L11.0933607,13.8309836 C8.09557377,13.8309836 5.66360656,16.262582 5.66360656,19.2611066 L5.66360656,37.697582 C5.66360656,40.2657787 7.92,42.147541 9.80004098,42.147541 L20.5879918,42.147541 L20.5879918,54.2837705 C20.5879918,56.0718443 22.037459,57.5203279 23.8245492,57.5203279 C25.6105328,57.5203279 27.0609836,56.0718443 27.0609836,54.2837705 L27.0609836,38.9109836 C27.0609836,37.1232787 25.6105328,35.6745492 23.8245492,35.6745492 Z" id="XMLID_136_" fill="#F15D3B"></path>
                </g>
            </g>
        </g>
    </g>
</svg>