<?xml version="1.0" encoding="UTF-8"?>
<svg width="44px" height="63px" viewBox="0 0 44 63" version="1.1" xmlns="http://www.w3.org/2000/svg" xmlns:xlink="http://www.w3.org/1999/xlink">
    <!-- Generator: Sketch 51.1 (57501) - http://www.bohemiancoding.com/sketch -->
    <title>90471</title>
    <desc>Created with Sketch.</desc>
    <defs></defs>
    <g id="design" stroke="none" stroke-width="1" fill="none" fill-rule="evenodd">
        <g id="homepage" transform="translate(-851.000000, -1348.000000)" fill-rule="nonzero">
            <g id="Group-15" transform="translate(729.000000, 1307.000000)">
                <g id="90471" transform="translate(122.000000, 41.000000)">
                    <path d="M43.385922,49.148822 L32.8331343,32.8335406 C32.0699415,31.6515558 30.7675589,31.1208767 29.4624525,31.1208767 C29.1924037,31.1208767 28.6333689,31.1274041 28.0290665,31.1358898 C27.981983,31.0562553 27.9328243,30.9772735 27.8533142,30.9234876 L25.1953695,29.1468549 C24.8887434,28.9420246 24.4905446,28.9528601 24.1965001,29.1706147 L21.998235,30.8035136 L19.7985432,29.1706147 C19.5021639,28.9528601 19.1062998,28.9420246 18.7972093,29.1468549 L16.1440637,30.9234876 C16.0690934,30.9727043 16.0214911,31.0418949 15.9777801,31.1142187 C15.3515573,31.1182657 14.7680079,31.12166 14.5222142,31.12166 C13.2230743,31.12166 11.9266582,31.6593887 11.1681349,32.8335406 L0.615217456,49.148822 C-0.506743406,50.8808071 -0.0526410966,53.1968656 1.63937965,54.3697121 L3.98187828,55.9949086 C5.39399249,52.6103118 7.72624431,49.7163158 10.6552755,47.6033905 L11.2593185,46.6684032 L11.2593185,47.1724504 C13.381835,45.7610921 15.7913919,44.7603083 18.3782575,44.2698381 C17.609617,42.5528661 16.9645868,40.5075649 16.4915473,38.5797573 C15.9404246,36.3301479 15.6171961,34.2454212 15.6171961,33.0647418 C15.6171961,32.6272742 15.673359,32.2058641 15.7585761,31.7948979 L17.6782317,38.1885039 C17.7775869,38.5233604 18.0652758,38.765136 18.4099058,38.8059976 C18.4446672,38.809914 18.4785206,38.8120028 18.5115957,38.8120028 C18.8183515,38.8120028 19.1085048,38.6488174 19.2662279,38.3759713 L20.762781,35.7815837 L21.1838082,36.2039077 C20.1762484,37.5454226 19.7803843,41.3212729 19.6266821,44.0778015 C20.4041426,43.981979 21.1917203,43.9182714 21.9943438,43.9182714 C22.7986536,43.9182714 23.5886956,43.9831539 24.3684908,44.0788459 C24.214659,41.3224478 23.8189246,37.5465976 22.8089004,36.2039077 L23.2299275,35.7789728 L24.7311501,38.3758407 C24.8888731,38.6486868 25.1750056,38.8118723 25.4840961,38.8118723 C25.5171712,38.8118723 25.5518028,38.8097835 25.5851374,38.805867 C25.929508,38.7648749 26.2173267,38.5230993 26.3191462,38.1883733 L28.2376345,31.8082138 C28.3198684,32.2150025 28.373956,32.6323656 28.373956,33.0646112 C28.373956,35.258607 27.281179,40.5505153 25.6143214,44.2697076 C28.2059861,44.7616138 30.6194342,45.764878 32.7420803,47.1797611 L32.7420803,46.670753 L33.3562404,47.6180119 C36.2751545,49.7319816 38.6010508,52.6211473 40.0092738,56 L42.3620192,54.3697121 C44.0535211,53.1968656 44.5054184,50.8808071 43.385922,49.148822 Z M18.7663392,35.7490772 L17.6491775,32.0245324 L19.2559811,30.948814 L20.854224,32.1352375 L18.7663392,35.7490772 Z M25.2284446,35.7490772 L23.1428945,32.1351069 L24.739581,30.9486834 L26.3480708,32.0244019 L25.2284446,35.7490772 Z" id="XMLID_203_" fill="#F15D3B"></path>
                    <path d="M17,54.3177863 L18.9187791,56.9988915 C19.9823608,56.3179803 21.2150508,55.9448232 22.497586,55.9448232 C23.7826004,55.9448232 25.0176392,56.3178417 26.0812209,57 L28,54.3169549 C26.5039916,52.8205853 24.5622472,52 22.5000652,52 C20.4368394,52 18.4927462,52.8218324 17,54.3177863 Z" id="XMLID_202_" fill="#1E2362"></path>
                    <path d="M13,21 C13.0658611,24.4207391 14.974512,27.3515342 17.7554591,28.8733707 C19.0254293,29.5694513 20.4576105,30 22.0019798,30 C23.5439734,30 24.9720629,29.5702576 26.2405813,28.8755207 C29.0206045,27.3555655 30.9365147,24.425308 31,21.0033595 C28.7062136,22.6259798 25.4703105,23.6805823 22.0019798,23.6805823 C18.5336491,23.6805823 15.2969541,22.6259798 13,21 Z" id="XMLID_201_" fill="#F15D3B"></path>
                    <path d="M12.8459801,12.7429259 L12.8166215,15.3142399 C12.8214494,17.3492749 16.9299609,20 22,20 C27.0699087,20 31.1747666,17.3492749 31.1769848,15.3142399 L31.1499749,12.7441985 C32.4840309,12.405429 33.5192813,11.9021106 34.1822644,11.1787575 C34.7017164,10.6144811 35,9.91861642 35,9.04293159 C35.000261,5.07556138 29.174335,0 22.0001305,0 C14.8195323,0 9,5.07556138 9,9.04293159 C9,9.91861642 9.29658737,10.6133357 9.81369066,11.1787575 C10.4769347,11.9019834 11.5134899,12.4053017 12.8459801,12.7429259 Z" id="XMLID_200_" fill="#F15D3B"></path>
                    <path d="M22.000064,46 C12.6265999,46 5,53.6266549 5,63 L9.28270892,62.999872 C9.28270892,62.9937303 9.28270892,62.9852854 9.28270892,62.9792716 L9.28270892,62.975305 C9.42192575,62.1363154 10.141426,61.5250826 10.9861957,61.5250826 C11.0009108,61.5250826 11.0172892,61.5263621 11.0335397,61.5263621 L17.649794,61.6979475 C17.5252921,62.1134118 17.4389214,62.5448702 17.4389214,63 L26.5650453,63 C26.5650453,62.5448702 26.4794423,62.1134118 26.3526372,61.6979475 L32.9710667,61.5263621 C32.985014,61.5263621 32.9990892,61.5250826 33.0162354,61.5250826 C33.8601095,61.5250826 34.5828086,62.1363154 34.7211298,62.975305 L34.7211298,62.9792716 C34.7211298,62.9852854 34.7211298,62.9937303 34.7211298,62.999872 L39,63 C39.000128,53.6266549 31.3759592,46 22.000064,46 Z M29.3387615,55.8504828 L25.8120204,60.4973619 C24.9945054,59.2578785 23.5951715,58.4368024 21.999936,58.4368024 C20.4085392,58.4368024 19.0076699,59.2571108 18.1916903,60.4965942 L14.665845,55.8518903 C14.0645767,55.0593477 14.1399432,53.9424436 14.8439606,53.2385726 C16.8211467,51.2625902 19.4106053,50.2744071 22.0022392,50.2744071 C24.5932334,50.2744071 27.1824361,51.2625902 29.1628211,53.240236 C29.8660708,53.9435952 29.9401577,55.0583241 29.3387615,55.8504828 Z" id="XMLID_197_" fill="#1E2362"></path>
                </g>
            </g>
        </g>
    </g>
</svg>