<?xml version="1.0" encoding="UTF-8"?>
<svg width="38px" height="70px" viewBox="0 0 38 70" version="1.1" xmlns="http://www.w3.org/2000/svg" xmlns:xlink="http://www.w3.org/1999/xlink">
    <!-- Generator: Sketch 51.1 (57501) - http://www.bohemiancoding.com/sketch -->
    <title>90466</title>
    <desc>Created with Sketch.</desc>
    <defs></defs>
    <g id="design" stroke="none" stroke-width="1" fill="none" fill-rule="evenodd">
        <g id="homepage" transform="translate(-244.000000, -1599.000000)" fill="#F15D3B" fill-rule="nonzero">
            <g id="Group-17" transform="translate(119.000000, 1561.000000)">
                <g id="90466" transform="translate(125.000000, 38.000000)">
                    <path d="M18.4841255,13.5291218 C22.2208856,13.5291218 25.2492472,10.5011808 25.2492472,6.76498155 C25.2492472,3.02794096 22.2208856,0 18.4841255,0 C14.7483469,0 11.7191439,3.02794096 11.7191439,6.76498155 C11.7191439,10.5011808 14.7483469,13.5291218 18.4841255,13.5291218 Z" id="XMLID_402_"></path>
                    <path d="M36.4738303,44.7754982 L36.0354982,44.7754982 L36.0354982,40.8934686 C36.8469594,40.062797 37.1202509,38.7991218 36.6097048,37.6802952 L26.9631734,16.5455646 C26.4336974,15.3825683 25.2336827,14.776952 24.0284797,14.9058155 L12.9397712,14.9058155 C11.7328856,14.776952 10.5346937,15.382428 10.0043764,16.5455646 L0.35700369,37.6804354 C-0.305682657,39.1335498 0.334708487,40.8505609 1.78740221,41.5138081 C2.17679705,41.6913284 2.5859631,41.7760221 2.98573432,41.7760221 C4.08422878,41.7760221 5.13560886,41.14769 5.62119557,40.0829889 L10.2820148,29.8702435 L10.2751439,65.895786 C10.2751439,67.8135941 11.8283764,69.3672472 13.7470258,69.3672472 C15.6656753,69.3672472 17.2189077,67.8135941 17.2189077,65.895786 L17.2189077,45.2061181 L19.7504649,45.2061181 L19.7504649,65.895786 C19.7504649,67.8135941 21.3028561,69.3672472 23.2223469,69.3672472 C25.1409963,69.3672472 26.6942288,67.8135941 26.6942288,65.895786 L26.6848339,29.8702435 L31.3481771,40.0829889 C31.6103911,40.6614022 32.0487232,41.0969299 32.5636162,41.3874686 L32.5636162,44.7756384 L32.1251439,44.7756384 C31.3592546,44.7756384 30.7377934,45.3970996 30.7377934,46.1634096 L30.7377934,60.6742214 C30.7377934,61.4405314 31.3592546,62.0619926 32.1251439,62.0619926 L36.4738303,62.0619926 C37.2407011,62.0619926 37.8621624,61.4405314 37.8621624,60.6742214 L37.8621624,46.1632694 C37.8621624,45.3969594 37.2405609,44.7754982 36.4738303,44.7754982 Z M20.8807897,30.6386568 L19.0291661,34.1677491 C18.9209151,34.3700886 18.7128266,34.4969889 18.4824428,34.4969889 C18.2564059,34.4969889 18.0439705,34.3702288 17.9400664,34.1667675 L16.0859188,30.6386568 C15.9775277,30.4339336 15.9259262,30.2088782 15.9277491,29.9770923 C15.9456974,28.4573727 16.0996605,22.4672546 17.2187675,19.8094982 L16.3617343,18.9502214 C16.1202731,18.7096015 16.1202731,18.321048 16.3617343,18.0802878 L18.0483173,16.3928635 C18.2880959,16.1522435 18.6766494,16.1522435 18.9182509,16.3928635 L20.6065166,18.0802878 C20.7226199,18.1954096 20.7878229,18.3523173 20.7878229,18.5152546 C20.7878229,18.6781919 20.7224797,18.8350996 20.6065166,18.9502214 L19.7478007,19.8094982 C20.8687306,22.4672546 21.0208708,28.4573727 21.0389594,29.9770923 C21.0406421,30.2066347 20.9863764,30.4349151 20.8807897,30.6386568 Z" id="XMLID_399_"></path>
                </g>
            </g>
        </g>
    </g>
</svg>