<?xml version="1.0" encoding="UTF-8"?>
<svg width="44px" height="69px" viewBox="0 0 44 69" version="1.1" xmlns="http://www.w3.org/2000/svg" xmlns:xlink="http://www.w3.org/1999/xlink">
    <!-- Generator: Sketch 51.1 (57501) - http://www.bohemiancoding.com/sketch -->
    <title>90460</title>
    <desc>Created with Sketch.</desc>
    <defs></defs>
    <g id="design" stroke="none" stroke-width="1" fill="none" fill-rule="evenodd">
        <g id="homepage" transform="translate(-1143.000000, -1345.000000)" fill-rule="nonzero">
            <g id="Group-16" transform="translate(1033.000000, 1307.000000)">
                <g id="90460" transform="translate(110.000000, 38.000000)">
                    <path d="M43.7119245,37.3554465 L34.1677987,16.4465912 C33.6847673,15.386717 32.6336101,14.7729308 31.5383145,14.7820629 C31.5356855,14.7884277 31.5356855,14.7943774 31.5340252,14.8007421 C31.1131195,19.3023019 28.7005912,30.6156981 25.7777736,30.6156981 C22.8574465,30.6156981 20.4449182,19.3031321 20.0222138,14.8007421 C20.0222138,14.7953459 20.0222138,14.7884277 20.0222138,14.7828931 C18.9269182,14.7730692 17.875761,15.386717 17.390239,16.4465912 L13.1263899,25.7878742 C12.9426415,25.6616855 12.7301132,25.5702264 12.4911572,25.5702264 L3.99818868,25.5702264 C3.36544654,25.5702264 2.85349686,26.0821761 2.85349686,26.7149182 L2.85349686,27.0023019 C1.28789937,27.0213962 0.0251823899,28.288956 0.0251823899,29.8580126 C0.0251823899,31.4266541 1.28803774,32.6944906 2.85349686,32.7133082 L2.85349686,40.9242893 C2.85349686,41.5574465 3.36544654,42.0693962 3.99818868,42.0693962 L12.4911572,42.0693962 C13.122239,42.0693962 13.6357107,41.5574465 13.6357107,40.9242893 L13.6357107,32.7200881 L14.4138742,32.7200881 C15.5364277,32.7200881 16.5543774,32.0660377 17.0194214,31.0464277 L17.6657233,29.6287421 L17.6563145,65.1909811 C17.6563145,67.0883774 19.1947925,68.6253333 21.0910818,68.6253333 C22.99,68.6253333 24.5258491,67.0883774 24.5258491,65.1909811 L24.5258491,44.7226792 L27.0302516,44.7226792 L27.0302516,65.1909811 C27.0302516,67.0883774 28.5685912,68.6253333 30.4650189,68.6253333 C32.3631069,68.6253333 33.8997862,67.0883774 33.8997862,65.1909811 L33.8930063,29.6287421 L38.5063648,39.7325535 C38.9844151,40.7856478 40.0243648,41.4071824 41.1112201,41.4071824 C41.5066667,41.4071824 41.9113836,41.3234717 42.2983899,41.1477484 C43.7339245,40.4918994 44.3692956,38.7930566 43.7119245,37.3554465 Z M11.346327,39.7795975 L5.14343396,39.7795975 L5.14343396,27.8600252 L11.346327,27.8600252 L11.346327,39.7795975 Z" id="XMLID_246_" fill="#F15D3B"></path>
                    <path d="M29.1434969,20.1442516 C31.0731321,18.2133711 31.0731321,15.0827296 29.1434969,13.1518491 C28.8731321,12.8823145 28.4393585,12.8823145 28.1681635,13.1518491 L25.7776352,15.5411321 L23.3895975,13.1518491 C23.1217233,12.8823145 22.6829686,12.8823145 22.4150943,13.1518491 C20.4829686,15.0827296 20.4829686,18.2133711 22.4150943,20.1442516 C22.6831069,20.4133711 23.1217233,20.4133711 23.3895975,20.1442516 L25.7776352,17.7545535 L28.1681635,20.1442516 C28.4394969,20.4133711 28.8731321,20.4133711 29.1434969,20.1442516 Z" id="XMLID_245_" fill="#1E2362"></path>
                    <path d="M25.7777736,13.3843019 C27.8578113,13.3843019 29.6887925,12.4194843 30.9167799,10.9348302 C31.873434,9.77740881 32.4729686,8.31254088 32.4729686,6.69256604 C32.4729686,2.99532075 29.476956,0 25.7777736,0 C22.0844025,0 19.0875597,2.99532075 19.0875597,6.69256604 C19.0875597,8.31171069 19.6844654,9.77740881 20.6438868,10.9348302 C21.8692453,12.418239 23.702717,13.3843019 25.7777736,13.3843019 Z" id="XMLID_244_" fill="#F15D3B"></path>
                    <path d="M25.7777736,20.3466792 C25.1476604,20.3466792 24.6330818,20.8586289 24.6330818,21.4912327 C24.6330818,22.1238365 25.1476604,22.6362013 25.7777736,22.6362013 C26.4130063,22.6362013 26.9231572,22.1238365 26.9231572,21.4912327 C26.9231572,20.8586289 26.4130063,20.3466792 25.7777736,20.3466792 Z" id="XMLID_243_" fill="#1E2362"></path>
                    <path d="M25.7777736,24.926 C25.1476604,24.926 24.6330818,25.4378113 24.6330818,26.0709686 C24.6330818,26.7037107 25.1476604,27.215522 25.7777736,27.215522 C26.4130063,27.215522 26.9231572,26.7037107 26.9231572,26.0709686 C26.9231572,25.4379497 26.4130063,24.926 25.7777736,24.926 Z" id="XMLID_242_" fill="#1E2362"></path>
                </g>
            </g>
        </g>
    </g>
</svg>