<?xml version="1.0" encoding="UTF-8"?>
<svg width="60px" height="63px" viewBox="0 0 60 63" version="1.1" xmlns="http://www.w3.org/2000/svg" xmlns:xlink="http://www.w3.org/1999/xlink">
    <!-- Generator: Sketch 51.1 (57501) - http://www.bohemiancoding.com/sketch -->
    <title>90469</title>
    <desc>Created with Sketch.</desc>
    <defs></defs>
    <g id="design" stroke="none" stroke-width="1" fill="none" fill-rule="evenodd">
        <g id="homepage" transform="translate(-538.000000, -1348.000000)" fill-rule="nonzero">
            <g id="Group-14" transform="translate(424.000000, 1307.000000)">
                <g id="90469" transform="translate(114.000000, 41.000000)">
                    <rect id="XMLID_290_" fill="#F15D3B" x="13.5035669" y="16.3593631" width="3.86751592" height="8.1755414"></rect>
                    <path d="M9.77974522,9.66509554 C9.81261146,12.7657325 12.3295541,15.2694268 15.4375796,15.2694268 C18.5456051,15.2694268 21.0640764,12.7657325 21.0993631,9.66509554 C22.195414,9.63617834 23.0798726,8.74611465 23.0798726,7.64191083 C23.0797452,3.42840764 19.6540127,0 15.4374522,0 C11.2247134,0 7.7966879,3.42840764 7.7966879,7.64191083 C7.7966879,8.74624204 8.67872611,9.63630573 9.77974522,9.66509554 Z M11.3723567,3.79694268 L11.3723567,4.37273885 C11.3723567,4.93414013 11.8259873,5.3889172 12.3864968,5.3889172 C12.9494268,5.3889172 13.4044586,4.93414013 13.4044586,4.37273885 L13.4044586,2.42751592 C13.7292994,2.29949045 14.0696815,2.19961783 14.4208917,2.13528662 L14.4208917,4.37261146 C14.4208917,4.93401274 14.8745223,5.38878981 15.4374522,5.38878981 C15.9996178,5.38878981 16.4555414,4.93401274 16.4555414,4.37261146 L16.4555414,2.13528662 C16.8082803,2.19961783 17.1449682,2.30025478 17.4712102,2.42751592 L17.4712102,4.37261146 C17.4712102,4.93401274 17.9248408,5.38878981 18.4877707,5.38878981 C19.0499363,5.38878981 19.5042038,4.93401274 19.5042038,4.37261146 L19.5042038,3.79681529 C20.4545223,4.80089172 21.0477707,6.14828025 21.0477707,7.64191083 L9.82878981,7.64191083 C9.82878981,6.14840764 10.4198726,4.80101911 11.3723567,3.79694268 Z" id="XMLID_287_" fill="#F15D3B"></path>
                    <path d="M22.3140127,33.3459873 L22.306242,33.3459873 L22.306242,26.8719745 L23.0635669,28.1487898 C23.1970701,28.3705732 23.3611465,28.5719745 23.5584713,28.7414013 L28.6557962,33.1710828 L28.1974522,34.7035669 C27.955414,35.5115924 28.4152866,36.3614013 29.2242038,36.6028025 C29.3676433,36.6456051 29.5161783,36.6652229 29.6597452,36.6652229 C30.3163057,36.6652229 30.9238217,36.2393631 31.1212739,35.5771975 L31.4124841,34.6010191 C32.0323567,34.5569427 32.6380892,34.3066242 33.075414,33.8026752 C33.9546497,32.7917197 33.8476433,31.262293 32.8373248,30.3844586 L32.7077707,30.2728662 L34.9312102,22.8290446 L37.4067516,23.569172 C37.6058599,23.628535 37.8212739,23.6070064 38.0040764,23.5075159 C38.1875159,23.4087898 38.3225478,23.2416561 38.3819108,23.0425478 L39.7840764,18.3547771 C39.9072611,17.9408917 39.671465,17.5038217 39.2561783,17.3797452 L34.9965605,16.1067516 C34.8405096,16.0607643 34.6765605,16.0638217 34.5250955,16.1141401 L30.1475159,17.5798726 C29.9078981,17.6598726 29.7214013,17.8538854 29.6471338,18.0983439 L29.006242,20.2401274 C28.8835669,20.6540127 29.1194904,21.0910828 29.5324841,21.2152866 L32.0095541,21.9542675 L30.1811465,28.0750318 L27.0318471,25.3397452 L22.4170701,17.562293 C21.7191083,16.3830573 20.7087898,16.3592357 19.4050955,16.3592357 C19.4050955,30.0540127 19.4050955,29.1854777 19.4050955,35.3792357 L22.3140127,35.3792357 C22.3140127,44.6301911 22.3140127,35.9670064 22.3140127,57.0899363 L16.4963057,57.0899363 L16.4963057,41.7975796 L14.3782166,41.7975796 L14.3782166,57.0900637 L8.56420382,57.0900637 C8.56420382,36.0277707 8.56420382,44.6057325 8.56420382,35.3793631 L11.4707006,35.3793631 C11.4707006,29.1886624 11.4707006,30.056051 11.4707006,16.3593631 C10.066879,16.3593631 8.91694268,16.5142675 8.33617834,17.7935032 L0.258216561,35.4921019 C-0.3,36.7092994 0.237961783,38.1466242 1.45503185,38.7016561 C2.66675159,39.2559236 4.10713376,38.7253503 4.66382166,37.503949 L8.57044586,28.9494268 L8.57044586,33.3459873 L8.56420382,33.3459873 C7.43910828,33.3459873 6.52955414,34.2563057 6.52955414,35.3793631 L6.52955414,57.0900637 C6.52955414,58.2129936 7.43910828,59.1234395 8.56420382,59.1234395 C8.56420382,60.7290446 9.8656051,62.0315924 11.4707006,62.0315924 C13.0765605,62.0315924 14.3780892,60.7289172 14.3780892,59.1234395 C14.7677707,59.1234395 15.1290446,59.0149045 15.4373248,58.8259873 C15.7472611,59.0147771 16.1101911,59.1234395 16.496051,59.1234395 C16.496051,60.7290446 17.7997452,62.0315924 19.4049682,62.0315924 C21.010828,62.0315924 22.3138854,60.7289172 22.3138854,59.1234395 C23.4350318,59.1234395 24.346879,58.213121 24.346879,57.0900637 L24.346879,35.3793631 C24.3470064,34.2563057 23.4350318,33.3459873 22.3140127,33.3459873 Z" id="XMLID_286_" fill="#F15D3B"></path>
                    <path d="M59.2619108,19.4829299 C58.8425478,19.3092994 58.3584713,19.4036943 58.0384713,19.726242 L52.6578344,25.1036943 C52.3594904,25.4003822 52.1550318,25.7738854 52.0621656,26.1833121 L50.7543949,31.9438217 L54.2894268,36.7198726 L54.7328662,37.3210191 L54.4821656,37.8047134 L51.8551592,42.8648408 L54.533758,46.2858599 L50.9847134,43.2332484 L50.7957962,43.0701911 L50.8903185,42.7457325 L52.3431847,37.749172 L49.0384713,34.7477707 L43.9271338,38.0036943 C43.5243312,38.2594904 43.2166879,38.636051 43.0440764,39.0802548 L41.1064968,44.1193631 C40.888535,44.683949 40.4529936,45.1343949 39.8946497,45.3694268 L33.6047134,48.0207643 C33.3220382,48.1398726 33.1347771,48.4107006 33.1244586,48.7155414 L32.9277707,54.4217834 C32.9026752,55.1299363 32.5411465,55.7825478 31.9564331,56.1811465 L25.4610191,60.6001274 C25.176051,60.7938854 25.0526115,61.1499363 25.1533758,61.4784713 C25.2541401,61.8070064 25.5579618,62.0319745 25.9028025,62.0319745 L59.9557962,62.0319745 L59.9557962,20.5203822 C59.9557962,20.066879 59.6802548,19.6563057 59.2619108,19.4829299 Z" id="XMLID_285_" fill="#1E2362"></path>
                    <path d="M38.5361783,33.1351592 L38.8680255,36.0636943 C38.8829299,36.1857325 38.9507006,36.2965605 39.049172,36.3664968 C39.151465,36.4363057 39.2787261,36.4591083 39.3980892,36.4281529 L41.7566879,35.8277707 C42.2228025,35.7095541 42.5616561,35.306242 42.6007643,34.8257325 L42.8752866,31.2466242 C42.8878981,31.1017834 42.822293,30.9612739 42.7076433,30.8741401 C42.5904459,30.7859873 42.4366879,30.7633121 42.3008917,30.8156688 L39.2584713,31.9570701 C38.776051,32.137707 38.4784713,32.6230573 38.5361783,33.1351592 Z" id="XMLID_284_" fill="#1E2362"></path>
                    <path d="M36.4299363,37.946242 C36.2901911,37.9821656 36.175414,38.0878981 36.1317197,38.2264968 L35.116051,41.3129936 C34.9559236,41.8024204 35.1487898,42.3380892 35.5836943,42.613121 L38.0764331,44.1878981 C38.1826752,44.2535032 38.3098089,44.2709554 38.4270064,44.2359236 C38.5440764,44.2011465 38.642293,44.116051 38.6917197,44.003949 L39.7020382,41.7880255 C39.8985987,41.3496815 39.7987261,40.8336306 39.4472611,40.5040764 L36.8282803,38.0486624 C36.7212739,37.9481529 36.5735032,37.9103185 36.4299363,37.946242 Z" id="XMLID_283_" fill="#1E2362"></path>
                </g>
            </g>
        </g>
    </g>
</svg>