<?xml version="1.0" encoding="UTF-8"?>
<svg width="38px" height="71px" viewBox="0 0 38 71" version="1.1" xmlns="http://www.w3.org/2000/svg" xmlns:xlink="http://www.w3.org/1999/xlink">
    <!-- Generator: Sketch 51.1 (57501) - http://www.bohemiancoding.com/sketch -->
    <title>90481</title>
    <desc>Created with Sketch.</desc>
    <defs></defs>
    <g id="design" stroke="none" stroke-width="1" fill="none" fill-rule="evenodd">
        <g id="homepage" transform="translate(-1158.000000, -1598.000000)" fill-rule="nonzero">
            <g id="Group-20" transform="translate(1033.000000, 1561.000000)">
                <g id="90481" transform="translate(125.000000, 37.000000)">
                    <path d="M23.0406667,15.1769438 C23.0406667,15.1437828 23.0361124,15.1147491 23.0361124,15.081588 L15.0511311,15.081588 C15.0511311,15.1147491 15.0470037,15.1437828 15.0470037,15.1769438 C15.0470037,18.2835506 15.7820974,22.1423296 16.6605094,25.1326592 C16.7567191,25.0649139 16.8581948,24.9985918 16.9838652,24.9985918 L21.1036629,24.9985918 C21.229618,24.9985918 21.330809,25.0650562 21.4268764,25.1326592 C22.3098427,22.1252509 23.0406667,18.2660449 23.0406667,15.1769438 Z" id="XMLID_63_" fill="#F15D3B"></path>
                    <rect id="XMLID_62_" fill="#1E2362" x="17.5730787" y="26.1750262" width="2.94122846" height="1.54462172"></rect>
                    <path d="M37.1533258,26.7912809 L27.0448989,16.0456779 C26.5896105,15.5606442 26.0013933,15.3158502 25.3946742,15.2113858 C25.3877004,17.6848015 24.6331086,23.5755131 23.0547566,27.7371536 C23.7007566,27.7842622 24.2173858,28.3105693 24.2173858,28.9700899 L24.2173858,31.375618 L24.2173858,34.2658951 C24.2173858,34.9565843 23.6569213,35.5164794 22.9673708,35.5164794 L21.3380674,35.5164794 L16.7523071,35.5164794 L15.1202996,35.5164794 C14.4306067,35.5164794 13.8702846,34.9564419 13.8702846,34.2658951 L13.8702846,31.3744794 L13.8702846,28.9702322 C13.8702846,28.3107116 14.3869139,27.7844045 15.0330562,27.7372959 C13.426382,23.4851386 12.6996854,17.6018277 12.6931386,15.2129513 C12.088839,15.3174157 11.5006217,15.5622097 11.0453333,16.0459625 L0.935910112,26.7915655 C-0.382988764,28.1901648 -0.021917603,30.4611985 1.66246442,31.3860075 L10.7051835,36.349633 C10.7051835,37.8067266 10.6957903,48.3190637 10.6957903,67.0089438 C10.6957903,68.9593258 12.2768464,70.5395281 14.2263745,70.5395281 C16.175618,70.5395281 17.7571011,68.9593258 17.7571011,67.0089438 L17.7571011,45.9698951 L20.3311386,45.9698951 L20.3311386,67.0086592 C20.3311386,68.9590412 21.9124794,70.5392434 23.8620075,70.5392434 C25.8112509,70.5392434 27.3923071,68.9590412 27.3923071,67.0086592 C27.3923071,43.2277753 27.3827715,37.4183296 27.3827715,36.3506292 L36.4274831,31.3857228 C38.1122921,30.4609139 38.4730787,28.1898801 37.1533258,26.7912809 Z M7.82472659,28.0552434 L10.7048989,24.9936105 L10.7048989,29.6365843 L7.82472659,28.0552434 Z M27.3822022,29.6378652 L27.3822022,24.991618 L30.265221,28.0552434 L27.3822022,29.6378652 Z" id="XMLID_58_" fill="#F15D3B"></path>
                    <path d="M16.5433783,31.6917154 C16.5433783,33.0726667 17.6621723,34.1924569 19.0442622,34.1924569 C20.4253558,34.1924569 21.5441498,33.0726667 21.5441498,31.6917154 C21.5441498,31.0985169 21.3078951,30.5759101 20.962764,30.1469513 C20.5056255,29.5779476 19.8317303,29.1906891 19.0442622,29.1906891 C18.7312959,29.1906891 18.4392509,29.2642697 18.1631461,29.3690187 C18.4645843,29.5574532 18.6762172,29.8756854 18.6762172,30.2571086 C18.6762172,30.8467491 18.1981573,31.3235281 17.6097978,31.3235281 C17.2279476,31.3235281 16.9088614,31.1124644 16.7201423,30.8113109 C16.6166742,31.0872734 16.5433783,31.379176 16.5433783,31.6917154 Z" id="XMLID_57_" fill="#1E2362"></path>
                    <path d="M19.0417004,13.7578502 C22.7331086,13.7578502 25.9235431,10.7652434 25.9235431,6.87942322 C25.9234007,3.07913858 22.8431236,0 19.0417004,0 C15.2418427,0 12.1641273,3.07913858 12.1641273,6.87942322 C12.1641273,10.7144345 15.296779,13.7578502 19.0417004,13.7578502 Z" id="XMLID_56_" fill="#F15D3B"></path>
                </g>
            </g>
        </g>
    </g>
</svg>