<?xml version="1.0" encoding="UTF-8"?>
<svg width="60px" height="62px" viewBox="0 0 60 62" version="1.1" xmlns="http://www.w3.org/2000/svg" xmlns:xlink="http://www.w3.org/1999/xlink">
    <!-- Generator: Sketch 51.1 (57501) - http://www.bohemiancoding.com/sketch -->
    <title>90456</title>
    <desc>Created with Sketch.</desc>
    <defs></defs>
    <g id="design" stroke="none" stroke-width="1" fill="none" fill-rule="evenodd">
        <g id="homepage" transform="translate(-233.000000, -1349.000000)" fill-rule="nonzero">
            <g id="Group-13" transform="translate(119.000000, 1307.000000)">
                <g id="90456" transform="translate(114.000000, 42.000000)">
                    <path d="M32.3047579,31.6832842 C33.5960842,31.9841684 34.9018105,31.1790316 35.2008,29.8712842 C35.3421474,29.2529684 35.2192421,28.6408421 34.9264421,28.1312842 L36.0900632,23.3698105 L37.5434526,23.7256421 C37.8546947,23.8014316 38.1836211,23.7245053 38.4303158,23.5173474 C38.6771368,23.3114526 38.8085053,22.9989474 38.7862737,22.6787368 L38.1229895,12.9545684 C38.1068211,12.7201263 37.9416,12.5221895 37.7109474,12.4653474 C37.4828211,12.4100211 37.2444632,12.5086737 37.1208,12.7101474 L32.0479579,21.0317053 C31.8804632,21.3053053 31.8543158,21.6426947 31.9758316,21.9397895 C32.1010105,22.2361263 32.3554105,22.4561684 32.6690526,22.5330947 L34.1216842,22.8877895 L33.1354105,26.9173895 L28.0628211,25.7503579 L22.3475368,17.3796632 C21.6642947,16.3781053 20.6458105,16.3093895 19.4253474,16.3093895 C19.4253474,29.9633684 19.4253474,29.0983579 19.4253474,35.2724211 L22.3253053,35.2724211 C22.3253053,44.4951158 22.3253053,35.8585263 22.3253053,56.9182737 L16.5271579,56.9182737 L16.5271579,41.6718316 L14.4150316,41.6718316 L14.4150316,56.9184 L8.61675789,56.9184 C8.61675789,35.9201684 8.61675789,44.4722526 8.61675789,35.2725474 L11.5150737,35.2725474 C11.5150737,29.1015158 11.5150737,29.9653895 11.5150737,16.3095158 C10.1162526,16.3095158 8.97258947,16.4652632 8.39077895,17.7394105 L0.334484211,35.3854737 C-0.218905263,36.5989895 0.3144,38.0309053 1.53107368,38.5848 C2.73776842,39.1378105 4.17423158,38.6089263 4.73077895,37.3903579 L8.62294737,28.8629053 L8.62294737,33.2454316 L8.61675789,33.2454316 C7.49696842,33.2454316 6.59002105,34.1528842 6.59002105,35.2725474 L6.59002105,56.9184 C6.59002105,58.0379368 7.49709474,58.9455158 8.61675789,58.9455158 C8.61675789,60.5461895 9.91414737,61.8447158 11.5150737,61.8447158 C13.1152421,61.8447158 14.4150316,60.5461895 14.4150316,58.9455158 C14.8008,58.9455158 15.1628211,58.8365053 15.4719158,58.6484211 C15.7793684,58.8363789 16.1389895,58.9455158 16.5271579,58.9455158 C16.5271579,60.5461895 17.8245474,61.8447158 19.4254737,61.8447158 C21.0256421,61.8447158 22.3254316,60.5461895 22.3254316,58.9455158 C23.4452211,58.9455158 24.3521684,58.0379368 24.3521684,56.9184 L24.3521684,35.2725474 C24.3521684,34.1527579 23.4452211,33.2454316 22.3254316,33.2454316 L22.3191158,33.2454316 L22.3191158,25.9061053 L24.6050526,29.2548632 C24.9463579,29.7572211 25.4681684,30.1119158 26.0576842,30.2472 L32.3047579,31.6832842 Z" id="XMLID_304_" fill="#F15D3B"></path>
                    <rect id="XMLID_303_" fill="#F15D3B" x="13.5442105" y="16.3095158" width="3.85604211" height="8.15178947"></rect>
                    <path d="M9.82951579,9.63612632 C9.86197895,12.7269474 12.3721263,15.2230737 15.4719158,15.2230737 C18.5700632,15.2230737 21.0826105,12.7269474 21.1148211,9.63612632 C22.2078316,9.60694737 23.0909053,8.72071579 23.0909053,7.61823158 C23.0909053,3.4176 19.6714105,0 15.4719158,0 C11.2685053,0 7.85052632,3.4176 7.85052632,7.61823158 C7.85052632,8.72084211 8.73435789,9.60694737 9.82951579,9.63612632 Z M11.4175579,3.78530526 L11.4175579,4.35941053 C11.4175579,4.91898947 11.8704,5.37284211 12.4306105,5.37284211 C12.9900632,5.37284211 13.4429053,4.91898947 13.4429053,4.35941053 L13.4429053,2.42033684 C13.7688,2.29389474 14.1061895,2.19397895 14.4573474,2.12892632 L14.4573474,4.35941053 C14.4573474,4.91898947 14.9100632,5.37284211 15.4720421,5.37284211 C16.0299789,5.37284211 16.4848421,4.91898947 16.4848421,4.35941053 L16.4848421,2.12892632 C16.8361263,2.19397895 17.1735158,2.29389474 17.4971368,2.42033684 L17.4971368,4.35941053 C17.4971368,4.91898947 17.9498526,5.37284211 18.5117053,5.37284211 C19.0711579,5.37284211 19.5262737,4.91898947 19.5262737,4.35941053 L19.5262737,3.78530526 C20.4722526,4.78686316 21.0618947,6.12985263 21.0618947,7.61823158 L9.87802105,7.61823158 C9.87802105,6.12985263 10.4684211,4.78686316 11.4175579,3.78530526 Z" id="XMLID_300_" fill="#F15D3B"></path>
                    <path d="M42.7314947,55.0063579 L30.2296421,55.0063579 C29.6677895,55.0063579 29.2150737,55.4592 29.2150737,56.0197895 L29.2150737,60.5509895 C29.2150737,61.1109474 29.6677895,61.5642947 30.2296421,61.5642947 L42.7314947,61.5642947 C43.2886737,61.5642947 43.7436632,61.1109474 43.7436632,60.5509895 L43.7436632,56.0197895 C43.7436632,55.4592 43.2886737,55.0063579 42.7314947,55.0063579 Z" id="XMLID_299_" fill="#1E2362"></path>
                    <path d="M58.9479158,55.0063579 L46.4460632,55.0063579 C45.8842105,55.0063579 45.4314947,55.4592 45.4314947,56.0197895 L45.4314947,60.5509895 C45.4314947,61.1109474 45.8840842,61.5642947 46.4460632,61.5642947 L58.9479158,61.5642947 C59.5050947,61.5642947 59.9602105,61.1109474 59.9602105,60.5509895 L59.9602105,56.0197895 C59.9602105,55.4592 59.5050947,55.0063579 58.9479158,55.0063579 Z" id="XMLID_298_" fill="#1E2362"></path>
                    <path d="M58.9479158,38.7888 L46.4460632,38.7888 C45.8842105,38.7888 45.4314947,39.2427789 45.4314947,39.8027368 L45.4314947,44.3335579 C45.4314947,44.8946526 45.8840842,45.3473684 46.4460632,45.3473684 L58.9479158,45.3473684 C59.5050947,45.3473684 59.9602105,44.8946526 59.9602105,44.3335579 L59.9602105,39.8027368 C59.9602105,39.2426526 59.5050947,38.7888 58.9479158,38.7888 Z" id="XMLID_297_" fill="#1E2362"></path>
                    <path d="M42.7314947,38.7888 L30.2296421,38.7888 C29.6677895,38.7888 29.2150737,39.2427789 29.2150737,39.8027368 L29.2150737,44.3335579 C29.2150737,44.8946526 29.6677895,45.3473684 30.2296421,45.3473684 L42.7314947,45.3473684 C43.2886737,45.3473684 43.7436632,44.8946526 43.7436632,44.3335579 L43.7436632,39.8027368 C43.7436632,39.2426526 43.2886737,38.7888 42.7314947,38.7888 Z" id="XMLID_296_" fill="#1E2362"></path>
                    <path d="M37.3229053,47.9109474 L37.3229053,52.4429053 C37.3229053,53.0027368 37.7756211,53.4562105 38.3374737,53.4562105 L50.8393263,53.4562105 C51.3972632,53.4562105 51.8523789,53.0027368 51.8523789,52.4429053 L51.8523789,47.9109474 C51.8523789,47.3509895 51.3972632,46.8971368 50.8393263,46.8971368 L38.3374737,46.8971368 C37.7756211,46.8971368 37.3229053,47.3509895 37.3229053,47.9109474 Z" id="XMLID_295_" fill="#1E2362"></path>
                    <path d="M37.3229053,31.6942737 L37.3229053,36.2250947 C37.3229053,36.7863158 37.7756211,37.2389053 38.3374737,37.2389053 L50.8393263,37.2389053 C51.3972632,37.2389053 51.8523789,36.7863158 51.8523789,36.2250947 L51.8523789,31.6942737 C51.8523789,31.1344421 51.3972632,30.6805895 50.8393263,30.6805895 L38.3374737,30.6805895 C37.7756211,30.6805895 37.3229053,31.1344421 37.3229053,31.6942737 Z" id="XMLID_294_" fill="#1E2362"></path>
                    <path d="M58.9479158,46.8971368 L54.2142316,46.8971368 C53.6546526,46.8971368 53.2019368,47.3509895 53.2019368,47.9109474 L53.2019368,52.4429053 C53.2019368,53.0027368 53.6545263,53.4562105 54.2142316,53.4562105 L58.9479158,53.4562105 C59.5050947,53.4562105 59.9602105,53.0027368 59.9602105,52.4429053 L59.9602105,47.9109474 C59.9602105,47.3509895 59.5050947,46.8971368 58.9479158,46.8971368 Z" id="XMLID_293_" fill="#1E2362"></path>
                    <path d="M58.9479158,30.6805895 L54.2142316,30.6805895 C53.6546526,30.6805895 53.2019368,31.1344421 53.2019368,31.6942737 L53.2019368,36.2250947 C53.2019368,36.7863158 53.6545263,37.2389053 54.2142316,37.2389053 L58.9479158,37.2389053 C59.5050947,37.2389053 59.9602105,36.7863158 59.9602105,36.2250947 L59.9602105,31.6942737 C59.9602105,31.1344421 59.5050947,30.6805895 58.9479158,30.6805895 Z" id="XMLID_292_" fill="#1E2362"></path>
                </g>
            </g>
        </g>
    </g>
</svg>