<?xml version="1.0" encoding="UTF-8"?>
<svg width="63px" height="70px" viewBox="0 0 63 70" version="1.1" xmlns="http://www.w3.org/2000/svg" xmlns:xlink="http://www.w3.org/1999/xlink">
    <!-- Generator: Sketch 51.1 (57501) - http://www.bohemiancoding.com/sketch -->
    <title>90518</title>
    <desc>Created with Sketch.</desc>
    <defs></defs>
    <g id="design" stroke="none" stroke-width="1" fill="none" fill-rule="evenodd">
        <g id="homepage" transform="translate(-536.000000, -1599.000000)" fill-rule="nonzero">
            <g id="Group-18" transform="translate(424.000000, 1561.000000)">
                <g id="90518" transform="translate(112.000000, 38.000000)">
                    <path d="M34,65.5786207 C34,66.388 34.6990361,67 35.5455422,67 L44.5225542,67 C45.3697831,67 46,66.3881379 46,65.5786207 L46,59 L34,59 L34,65.5786207 Z" id="XMLID_32_" fill="#1E2362"></path>
                    <path d="M19.0017628,14 C22.8655642,14 26,10.8666562 26,7.00051419 C25.9998531,3.13334383 22.8654173,0 19.0017628,0 C15.1335544,0 12,3.13334383 12,7.00051419 C12,10.8666562 15.1334075,14 19.0017628,14 Z" id="XMLID_337_" fill="#F15D3B"></path>
                    <path d="M28.4457417,34 L23.2340347,34 C23.2340347,38.7447879 23.2340347,35.9058231 23.2340347,40.5607477 C23.2340347,41.4041697 22.5759248,42.0517613 21.7409541,42.0517613 C21.0573956,42.0517613 15.9597098,42.0517613 15.2720283,42.0517613 C14.4389059,42.0517613 13.7087153,41.4041697 13.7087153,40.5607477 C13.7087153,36.2504673 13.7087153,37.0585191 13.7087153,34.0176851 L8.53994392,34.0231488 L6.03190411,46.030913 C5.93721817,46.4805176 6.05692621,46.9151689 6.34269006,47.2734723 C6.63015996,47.6304817 7.06932639,47.8031632 7.52214124,47.8031632 L10.2964675,47.8031632 L10.2964675,66.4838246 C10.2964675,68.4264558 11.8573636,70 13.7796586,70 C15.6992524,70 17.2628498,68.4264558 17.2628498,66.4838246 L17.2628498,47.8030194 L19.821929,47.8030194 L19.821929,66.4836808 C19.821929,68.426312 21.3832517,69.9998562 23.3055467,69.9998562 C25.2242875,69.9998562 26.7883114,68.426312 26.7883114,66.4836808 L26.7883114,47.8030194 L29.490699,47.8030194 C29.946073,47.8030194 30.378273,47.6304817 30.6638947,47.2733285 C30.9506537,46.9151689 31.0616893,46.4537743 30.9668612,46.0041697 L28.4457417,34 Z" id="XMLID_418_" fill="#F15D3B"></path>
                    <path d="M9.3545173,30.7061558 L27.7666477,30.7061558 L27.0797562,27.4491675 L29.0685184,30.4419242 C29.5065818,31.1038682 30.2300025,31.5548866 31.0098643,31.6978504 L38.3572397,33.0296408 L38.3572397,51.311334 C35.9219622,52.0609241 34.1018072,54.270038 34.0765949,57 L46,57 C45.974931,54.270038 44.230556,52.0609241 41.7952785,51.311334 L41.7952785,32.6908381 C42.368285,32.2646767 42.7804199,31.647849 42.917655,30.8966784 C43.1179207,29.7792619 42.6547882,28.7187435 41.7952785,28.0714551 L41.7952785,7.75694605 C41.7952785,6.78694746 41.0433508,6 40.0762591,6 C39.1091675,6 38.3572397,6.78680378 38.3572397,7.75694605 L38.3572397,27.0760248 L33.2769644,26.1551655 L26.9011214,16.5669644 C26.3539002,15.7377743 25.4421037,15.3364699 24.5201363,15.3159234 L12.606329,15.2835949 C11.516041,15.3054346 10.4809048,15.9139287 9.99957933,16.9730103 L0.264915685,38.3629807 C-0.405645135,39.8337118 0.240992665,41.5712607 1.7058837,42.2424003 C3.18567291,42.917563 4.90698434,42.2599296 5.57310436,40.7945147 L8.57121746,34.2322609 L9.3545173,30.7061558 Z" id="XMLID_419_" fill="#F15D3B"></path>
                    <path d="M60.9693009,64.6663041 C60.9941959,64.5261082 61.0100893,64.3827849 61.0100893,64.2356541 C61.0100893,62.8406309 59.8404471,61.7099538 58.3975227,61.7099538 C58.2743136,61.7099538 58.1540582,61.7209682 58.0354906,61.7368779 C57.6487041,60.729399 56.6744243,60 55.4992968,60 C54.2185414,60 53.1880017,60.8727223 52.8924968,62.0233886 C52.6012115,61.8674191 52.2853124,61.7549633 51.9293283,61.7549633 C50.8145394,61.7549633 49.9093185,62.6294534 49.9093185,63.7073701 C49.9093185,64.0519445 50.0260577,64.3581724 50.1876641,64.6387 C48.9732953,64.6949959 48,65.6206146 48,66.8090835 C48,68.0333152 49.0270235,69 50.2924481,69 L60.7075519,69 C61.9721326,69 63,68.0333152 63,66.8090835 C63.0001406,65.6743269 62.1070156,64.7964373 60.9693009,64.6663041 Z" id="XMLID_420_" fill="#1E2362"></path>
                </g>
            </g>
        </g>
    </g>
</svg>