<?xml version="1.0" encoding="UTF-8"?>
<svg width="118px" height="118px" viewBox="0 0 118 118" version="1.1" xmlns="http://www.w3.org/2000/svg" xmlns:xlink="http://www.w3.org/1999/xlink">
    <!-- Generator: Sketch 51.1 (57501) - http://www.bohemiancoding.com/sketch -->
    <title>Group 24</title>
    <desc>Created with Sketch.</desc>
    <defs>
        <circle id="path-1" cx="47" cy="47" r="47"></circle>
        <filter x="-22.3%" y="-16.0%" width="144.7%" height="144.7%" filterUnits="objectBoundingBox" id="filter-2">
            <feOffset dx="0" dy="6" in="SourceAlpha" result="shadowOffsetOuter1"></feOffset>
            <feGaussianBlur stdDeviation="6" in="shadowOffsetOuter1" result="shadowBlurOuter1"></feGaussianBlur>
            <feColorMatrix values="0 0 0 0 0   0 0 0 0 0   0 0 0 0 0  0 0 0 0.0240885417 0" type="matrix" in="shadowBlurOuter1"></feColorMatrix>
        </filter>
    </defs>
    <g id="design" stroke="none" stroke-width="1" fill="none" fill-rule="evenodd">
        <g id="homepage" transform="translate(-1086.000000, -2457.000000)">
            <g id="Group-24" transform="translate(1098.000000, 2463.000000)">
                <g id="Oval-2">
                    <use fill="black" fill-opacity="1" filter="url(#filter-2)" xlink:href="#path-1"></use>
                    <use fill="#FFFFFF" fill-rule="evenodd" xlink:href="#path-1"></use>
                </g>
                <g id="calendar" transform="translate(23.000000, 24.000000)" fill="#F3694A">
                    <path d="M43.9901,2 L42.5,2 L42.5,0.759904 C42.5,0.339777 42.1642,0 41.75,0 C41.3329,0 41,0.340221 41,0.759904 L41,2 L35.5,2 L35.5,0.759904 C35.5,0.339777 35.1642,0 34.75,0 C34.3329,0 34,0.340221 34,0.759904 L34,2 L28.5,2 L28.5,0.759904 C28.5,0.339777 28.1642,0 27.75,0 C27.3329,0 27,0.340221 27,0.759904 L27,2 L21.5,2 L21.5,0.759904 C21.5,0.339777 21.1642,0 20.75,0 C20.3329,0 20,0.340221 20,0.759904 L20,2 L14.5,2 L14.5,0.759904 C14.5,0.339777 14.1642,0 13.75,0 C13.3329,0 13,0.340221 13,0.759904 L13,2 L7.5,2 L7.5,0.759904 C7.5,0.339777 7.16421,0 6.75,0 C6.3329,0 6,0.340221 6,0.759904 L6,2 L4.00989,2 C1.79405,2 0,3.79167 0,6.00181 L0,41.9982 C0,44.2069 1.79529,46 4.00989,46 L43.9901,46 C46.2059,46 48,44.2083 48,41.9982 L48,6.00181 C48,3.79309 46.2047,2 43.9901,2 Z M27.4911,29.1197 L28.6295,27.3276 C28.8516,26.978 29.3151,26.8746 29.6647,27.0967 C30.0144,27.3188 30.1177,27.7823 29.8956,28.132 L28.6087,30.1579 C29.4773,31.1987 30,32.5383 30,34 C30,37.3137 27.3137,40 24,40 C20.6863,40 18,37.3137 18,34 C18,30.6863 20.6863,28 24,28 C25.3023,28 26.5076,28.4149 27.4911,29.1197 Z M26.6851,30.3885 C25.9356,29.8303 25.0064,29.5 24,29.5 C21.5147,29.5 19.5,31.5147 19.5,34 C19.5,36.4853 21.5147,38.5 24,38.5 C26.4853,38.5 28.5,36.4853 28.5,34 C28.5,33.0795 28.2236,32.2236 27.7493,31.5106 L24.6317,36.4184 C24.3736,36.8246 23.8052,36.8861 23.4662,36.5445 L21.2526,34.3135 C20.9609,34.0194 20.9627,33.5445 21.2568,33.2528 C21.5508,32.9611 22.0257,32.9629 22.3174,33.257 L23.8693,34.8211 L26.6851,30.3885 Z M42.5,3.5 L42.5,5.2401 C42.5,5.65978 42.1671,6 41.75,6 C41.3358,6 41,5.66022 41,5.2401 L41,3.5 L35.5,3.5 L35.5,5.2401 C35.5,5.65978 35.1671,6 34.75,6 C34.3358,6 34,5.66022 34,5.2401 L34,3.5 L28.5,3.5 L28.5,5.2401 C28.5,5.65978 28.1671,6 27.75,6 C27.3358,6 27,5.66022 27,5.2401 L27,3.5 L21.5,3.5 L21.5,5.2401 C21.5,5.65978 21.1671,6 20.75,6 C20.3358,6 20,5.66022 20,5.2401 L20,3.5 L14.5,3.5 L14.5,5.2401 C14.5,5.65978 14.1671,6 13.75,6 C13.3358,6 13,5.66022 13,5.2401 L13,3.5 L7.5,3.5 L7.5,5.2401 C7.5,5.65978 7.1671,6 6.75,6 C6.33579,6 6,5.66022 6,5.2401 L6,3.5 L4.00989,3.5 C2.6223,3.5 1.5,4.62028 1.5,6.00181 L1.5,41.9982 C1.5,43.3784 2.62361,44.5 4.00989,44.5 L43.9901,44.5 C45.3777,44.5 46.5,43.3797 46.5,41.9982 L46.5,6.00181 C46.5,4.62162 45.3764,3.5 43.9901,3.5 L42.5,3.5 Z M4.75237,10 C4.34104,10 4,10.3358 4,10.75 C4,11.1671 4.33685,11.5 4.75237,11.5 L7.24763,11.5 C7.65896,11.5 8,11.1642 8,10.75 C8,10.3329 7.66315,10 7.24763,10 L4.75237,10 Z M10,10.75 C10,10.3358 10.341,10 10.7524,10 L13.2476,10 C13.6632,10 14,10.3329 14,10.75 C14,11.1642 13.659,11.5 13.2476,11.5 L10.7524,11.5 C10.3368,11.5 10,11.1671 10,10.75 Z M16.7524,10 C16.341,10 16,10.3358 16,10.75 C16,11.1671 16.3368,11.5 16.7524,11.5 L19.2476,11.5 C19.659,11.5 20,11.1642 20,10.75 C20,10.3329 19.6632,10 19.2476,10 L16.7524,10 Z M22,10.75 C22,10.3358 22.341,10 22.7524,10 L25.2476,10 C25.6632,10 26,10.3329 26,10.75 C26,11.1642 25.659,11.5 25.2476,11.5 L22.7524,11.5 C22.3368,11.5 22,11.1671 22,10.75 Z M28.7524,10 C28.341,10 28,10.3358 28,10.75 C28,11.1671 28.3368,11.5 28.7524,11.5 L31.2476,11.5 C31.659,11.5 32,11.1642 32,10.75 C32,10.3329 31.6632,10 31.2476,10 L28.7524,10 Z M34,10.75 C34,10.3358 34.341,10 34.7524,10 L37.2476,10 C37.6632,10 38,10.3329 38,10.75 C38,11.1642 37.659,11.5 37.2476,11.5 L34.7524,11.5 C34.3368,11.5 34,11.1671 34,10.75 Z M40.7524,10 C40.341,10 40,10.3358 40,10.75 C40,11.1671 40.3368,11.5 40.7524,11.5 L43.2476,11.5 C43.659,11.5 44,11.1642 44,10.75 C44,10.3329 43.6632,10 43.2476,10 L40.7524,10 Z M7,19.0059 C7,17.8981 7.88655,17 9.00592,17 L11.9941,17 C13.1019,17 14,17.8866 14,19.0059 L14,21.9941 C14,23.1019 13.1134,24 11.9941,24 L9.00592,24 C7.89808,24 7,23.1134 7,21.9941 L7,19.0059 Z M8.5,21.9941 L8.5,19.0059 C8.5,18.7212 8.7203,18.5 9.00592,18.5 L11.9941,18.5 C12.2788,18.5 12.5,18.7203 12.5,19.0059 L12.5,21.9941 C12.5,22.2788 12.2797,22.5 11.9941,22.5 L9.00592,22.5 C8.72118,22.5 8.5,22.2797 8.5,21.9941 Z M34,19.0059 C34,17.8981 34.8866,17 36.0059,17 L38.9941,17 C40.1019,17 41,17.8866 41,19.0059 L41,21.9941 C41,23.1019 40.1134,24 38.9941,24 L36.0059,24 C34.8981,24 34,23.1134 34,21.9941 L34,19.0059 Z M35.5,21.9941 L35.5,19.0059 C35.5,18.7212 35.7203,18.5 36.0059,18.5 L38.9941,18.5 C39.2788,18.5 39.5,18.7203 39.5,19.0059 L39.5,21.9941 C39.5,22.2788 39.2797,22.5 38.9941,22.5 L36.0059,22.5 C35.7212,22.5 35.5,22.2797 35.5,21.9941 Z M7,33.0059 C7,31.8981 7.88655,31 9.00592,31 L11.9941,31 C13.1019,31 14,31.8866 14,33.0059 L14,35.9941 C14,37.1019 13.1134,38 11.9941,38 L9.00592,38 C7.89808,38 7,37.1134 7,35.9941 L7,33.0059 Z M8.5,35.9941 L8.5,33.0059 C8.5,32.7212 8.7203,32.5 9.00592,32.5 L11.9941,32.5 C12.2788,32.5 12.5,32.7203 12.5,33.0059 L12.5,35.9941 C12.5,36.2788 12.2797,36.5 11.9941,36.5 L9.00592,36.5 C8.72118,36.5 8.5,36.2797 8.5,35.9941 Z M34,33.0059 C34,31.8981 34.8866,31 36.0059,31 L38.9941,31 C40.1019,31 41,31.8866 41,33.0059 L41,35.9941 C41,37.1019 40.1134,38 38.9941,38 L36.0059,38 C34.8981,38 34,37.1134 34,35.9941 L34,33.0059 Z M35.5,35.9941 L35.5,33.0059 C35.5,32.7212 35.7203,32.5 36.0059,32.5 L38.9941,32.5 C39.2788,32.5 39.5,32.7203 39.5,33.0059 L39.5,35.9941 C39.5,36.2788 39.2797,36.5 38.9941,36.5 L36.0059,36.5 C35.7212,36.5 35.5,36.2797 35.5,35.9941 Z M20.5,19.0059 C20.5,17.8981 21.3866,17 22.5059,17 L25.4941,17 C26.6019,17 27.5,17.8866 27.5,19.0059 L27.5,21.9941 C27.5,23.1019 26.6134,24 25.4941,24 L22.5059,24 C21.3981,24 20.5,23.1134 20.5,21.9941 L20.5,19.0059 Z M22,21.9941 L22,19.0059 C22,18.7212 22.2203,18.5 22.5059,18.5 L25.4941,18.5 C25.7788,18.5 26,18.7203 26,19.0059 L26,21.9941 C26,22.2788 25.7797,22.5 25.4941,22.5 L22.5059,22.5 C22.2212,22.5 22,22.2797 22,21.9941 Z" id="Shape"></path>
                </g>
            </g>
        </g>
    </g>
</svg>