<?xml version="1.0" encoding="UTF-8"?>
<svg width="118px" height="118px" viewBox="0 0 118 118" version="1.1" xmlns="http://www.w3.org/2000/svg" xmlns:xlink="http://www.w3.org/1999/xlink">
    <!-- Generator: Sketch 51.1 (57501) - http://www.bohemiancoding.com/sketch -->
    <title>Group 3</title>
    <desc>Created with Sketch.</desc>
    <defs>
        <circle id="path-1" cx="47" cy="47" r="47"></circle>
        <filter x="-22.3%" y="-16.0%" width="144.7%" height="144.7%" filterUnits="objectBoundingBox" id="filter-2">
            <feOffset dx="0" dy="6" in="SourceAlpha" result="shadowOffsetOuter1"></feOffset>
            <feGaussianBlur stdDeviation="6" in="shadowOffsetOuter1" result="shadowBlurOuter1"></feGaussianBlur>
            <feColorMatrix values="0 0 0 0 0   0 0 0 0 0   0 0 0 0 0  0 0 0 0.0240885417 0" type="matrix" in="shadowBlurOuter1"></feColorMatrix>
        </filter>
    </defs>
    <g id="design" stroke="none" stroke-width="1" fill="none" fill-rule="evenodd">
        <g id="homepage" transform="translate(-235.000000, -2137.000000)">
            <g id="Group-3" transform="translate(247.000000, 2143.000000)">
                <g id="Oval-2">
                    <use fill="black" fill-opacity="1" filter="url(#filter-2)" xlink:href="#path-1"></use>
                    <use fill="#FFFFFF" fill-rule="evenodd" xlink:href="#path-1"></use>
                </g>
                <g id="piggy" transform="translate(26.000000, 23.000000)">
                    <path d="M38.4811054,8.984 C38.7442719,8.888 39.038458,8.951 39.2395853,9.143 C39.4677296,9.364 44.7951006,14.585 42.3675645,19.623 C41.7821941,20.837 41.1447908,21.803 40.4603577,22.556 C41.2078307,24.238 41.6180903,26.049 41.6180903,27.935 C41.6180903,31.998 39.7268936,35.71 36.6159251,38.547 C37.0441961,40.868 37.0592056,44.197 35.0019039,47.57 C34.8718216,47.783 34.6406753,47.915 34.3915176,47.919 L28.9610815,48 L28.9510752,48 C28.7419428,48 28.5418162,47.91 28.4037288,47.753 C28.329682,47.669 27.1119114,46.207 26.5835771,43.52 C24.9585489,43.86 23.2544706,44.042 21.4983594,44.042 C19.7452501,44.042 18.0431731,43.86 16.4201461,43.521 C15.8918118,46.21 14.6680375,47.669 14.5949912,47.753 C14.4569039,47.91 14.2577779,48 14.0476449,48 L14.0376386,48 L8.60820304,47.919 C8.35804475,47.915 8.12789913,47.783 7.99681618,47.57 C5.93851378,44.196 5.95352328,40.866 6.38179427,38.546 C3.27282704,35.71 1.38062974,31.997 1.38062974,27.935 C1.38062974,26.046 1.7928906,24.233 2.54236484,22.548 C1.85693113,21.797 1.21752654,20.838 0.63215714,19.623 C-1.79437927,14.585 3.5309904,9.364 3.75913476,9.143 C3.96026202,8.951 4.25544881,8.888 4.51761469,8.984 C4.73175019,9.062 9.30564436,10.807 10.9036555,14.25 C11.6281139,13.89 12.383592,13.566 13.1650864,13.281 C12.560704,12.031 12.2405014,10.656 12.2405014,9.255 C12.2405014,4.152 16.3941296,0 21.4983594,0 C26.605591,0 30.7592193,4.152 30.7592193,9.255 C30.7592193,10.656 30.438016,12.031 29.8336336,13.281 C30.6141275,13.566 31.3696055,13.89 32.0930633,14.25 C33.6910744,10.805 38.2669699,9.062 38.4811054,8.984 Z M13.695422,9.255 C13.695422,4.954 17.1966374,1.455 21.4983594,1.455 C25.8020826,1.455 29.3042987,4.954 29.3042987,9.255 C29.3042987,10.5 28.9911005,11.714 28.4257427,12.812 C27.1619431,12.44 25.8381054,12.169 24.4712405,12.005 C24.5222728,11.796 24.5582956,11.583 24.5582956,11.364 C24.5582956,9.64 23.3575358,8.527 21.4983594,8.527 C20.4256806,8.527 19.9033501,8.075 19.9033501,7.145 C19.9033501,6.385 20.6198035,5.764 21.4983594,5.764 C22.1667823,5.764 22.7691635,6.13 22.9993091,6.674 C23.1554079,7.046 23.5836789,7.217 23.9519119,7.062 C24.3231468,6.906 24.497257,6.48 24.3401576,6.11 C23.9709239,5.232 23.1784225,4.611 22.2268203,4.397 L22.2268203,3.876 C22.2268203,3.474 21.9016146,3.148 21.4983594,3.148 C21.0971055,3.148 20.7708991,3.474 20.7708991,3.876 L20.7708991,4.399 C19.4410576,4.705 18.4484295,5.815 18.4484295,7.145 C18.4484295,8.516 19.2499367,9.982 21.4983594,9.982 C22.5630331,9.982 23.1023743,10.447 23.1023743,11.364 C23.1023743,11.544 23.0503414,11.713 22.9742933,11.875 C22.486985,11.847 21.9966747,11.828 21.4983594,11.828 C19.0668208,11.828 16.7333443,12.177 14.5729773,12.812 C14.0086202,11.714 13.695422,10.5 13.695422,9.255 Z M4.44656974,10.529 C3.40290935,11.68 0.280934901,15.542 1.94398621,18.992 C2.3812629,19.898 2.82054086,20.599 3.25681691,21.155 C4.69772866,18.678 6.90212351,16.542 9.62884887,14.941 C8.57718342,12.545 5.57728521,11.027 4.44656974,10.529 Z M41.0547338,18.992 C40.6174571,19.898 40.1781792,20.599 39.7439044,21.156 C38.301992,18.68 36.0975972,16.544 33.3718724,14.941 C34.4225373,12.552 37.4234361,11.029 38.5521503,10.529 C39.5988126,11.678 42.7217887,15.532 41.0547338,18.992 Z M21.4983594,42.588 C11.2088486,42.588 2.83655099,36.015 2.83655099,27.935 C2.83655099,19.855 11.2088486,13.282 21.4983594,13.282 C31.7908721,13.282 40.1631697,19.855 40.1631697,27.935 C40.1631697,36.015 31.7908721,42.588 21.4983594,42.588 Z M29.3083012,46.541 L33.9602447,46.471 C35.3531261,43.997 35.5132274,41.545 35.2970906,39.641 C33.2247794,41.208 30.7392066,42.425 27.9864648,43.179 C28.3166737,44.932 28.9800935,46.067 29.3083012,46.541 Z M13.687417,46.541 L9.03947594,46.471 C7.65259838,44.007 7.49349771,41.554 7.70863384,39.647 C9.77494131,41.208 12.252509,42.422 14.9952445,43.174 C14.6630343,44.916 14.0116221,46.066 13.687417,46.541 Z" id="Shape" fill="#F15D3B"></path>
                    <path d="M15,33.4994887 C15,30.4675095 18.1390633,28 21.9984845,28 C25.8589161,28 29,30.4675095 29,33.4994887 C29,36.5324905 25.8589161,39 21.9984845,39 C18.1390633,39 15,36.5324905 15,33.4994887 Z M16.4690048,33.4994887 C16.4690048,35.7123733 18.9493397,37.5131542 21.9984845,37.5131542 C25.04965,37.5131542 27.5309952,35.7123733 27.5309952,33.4994887 C27.5309952,31.2876267 25.04965,29.4868458 21.9984845,29.4868458 C18.9493397,29.4868458 16.4690048,31.2876267 16.4690048,33.4994887 Z" id="Shape" fill="#F25F3E"></path>
                    <path d="M20,33 C19.4477419,33 19,33.4464516 19,33.9987097 C19,34.5522581 19.4477419,35 20,35 C20.5522581,35 21,34.5522581 21,33.9987097 C21,33.4464516 20.5522581,33 20,33 Z" id="Shape" fill="#F25F3E" fill-rule="nonzero"></path>
                    <path d="M24,33 C23.4477419,33 23,33.4464516 23,33.9987097 C23,34.5522581 23.4477419,35 24,35 C24.5522581,35 25,34.5522581 25,33.9987097 C25,33.4464516 24.5522581,33 24,33 Z" id="Shape" fill="#F25F3E" fill-rule="nonzero"></path>
                    <path d="M14.0004973,18 C16.4314311,18 18,19.4263345 18,21.6327402 C18,24.0412811 16.2066393,26 14.0004973,26 C11.79535,26 10,24.0412811 10,21.6327402 C10,19.4263345 11.5705582,18 14.0004973,18 Z M11.4482158,21.6327402 C11.4482158,23.2792408 12.5930623,24.6192171 14.0004973,24.6192171 C15.408927,24.6192171 16.5537735,23.2792408 16.5537735,21.6327402 C16.5537735,19.6721234 14.9543703,19.3807829 14.0004973,19.3807829 C13.047619,19.3807829 11.4482158,19.6721234 11.4482158,21.6327402 Z" id="Shape" fill="#F25F3E"></path>
                    <path d="M16,21 C15.4490323,21 15,21.4467398 15,22.0006456 C15,22.5532602 15.4490323,23 16,23 C16.5535484,23 17,22.5532602 17,22.0006456 C17,21.4467398 16.5535484,21 16,21 Z" id="Shape" fill="#F25F3E" fill-rule="nonzero"></path>
                    <path d="M24,21.6327402 C24,19.4263345 25.5695636,18 28.0004973,18 C30.4294418,18 32,19.4263345 32,21.6327402 C32,24.0412811 30.2056447,26 28.0004973,26 C25.7943553,26 24,24.0412811 24,21.6327402 Z M25.4472212,21.6327402 C25.4472212,23.2792408 26.5920676,24.6192171 28.0004973,24.6192171 C29.4079324,24.6192171 30.5527788,23.2792408 30.5527788,21.6327402 C30.5527788,19.6721234 28.9533756,19.3807829 28.0004973,19.3807829 C27.0466244,19.3807829 25.4472212,19.6721234 25.4472212,21.6327402 Z" id="Shape" fill="#F25F3E"></path>
                    <path d="M28.9993544,21 C28.448031,21 28,21.4467398 28,22.0006456 C28,22.5532602 28.448031,23 28.9993544,23 C29.5532602,23 30,22.5532602 30,22.0006456 C30,21.4467398 29.5532602,21 28.9993544,21 Z" id="Shape" fill="#F25F3E" fill-rule="nonzero"></path>
                </g>
            </g>
        </g>
    </g>
</svg>