<?xml version="1.0" encoding="UTF-8"?>
<svg width="118px" height="118px" viewBox="0 0 118 118" version="1.1" xmlns="http://www.w3.org/2000/svg" xmlns:xlink="http://www.w3.org/1999/xlink">
    <!-- Generator: Sketch 51.1 (57501) - http://www.bohemiancoding.com/sketch -->
    <title>Group 23</title>
    <desc>Created with Sketch.</desc>
    <defs>
        <circle id="path-1" cx="47" cy="47" r="47"></circle>
        <filter x="-22.3%" y="-16.0%" width="144.7%" height="144.7%" filterUnits="objectBoundingBox" id="filter-2">
            <feOffset dx="0" dy="6" in="SourceAlpha" result="shadowOffsetOuter1"></feOffset>
            <feGaussianBlur stdDeviation="6" in="shadowOffsetOuter1" result="shadowBlurOuter1"></feGaussianBlur>
            <feColorMatrix values="0 0 0 0 0   0 0 0 0 0   0 0 0 0 0  0 0 0 0.0240885417 0" type="matrix" in="shadowBlurOuter1"></feColorMatrix>
        </filter>
    </defs>
    <g id="design" stroke="none" stroke-width="1" fill="none" fill-rule="evenodd">
        <g id="homepage" transform="translate(-661.000000, -2457.000000)">
            <g id="Group-23" transform="translate(673.000000, 2463.000000)">
                <g id="Oval-2">
                    <use fill="black" fill-opacity="1" filter="url(#filter-2)" xlink:href="#path-1"></use>
                    <use fill="#FFFFFF" fill-rule="evenodd" xlink:href="#path-1"></use>
                </g>
                <g id="graph" transform="translate(23.000000, 23.000000)" fill="#F36646">
                    <path d="M45.8186,5.055 L45.8186,29.8564 C47.0486,30.0343 48,31.0843 48,32.3657 C48,33.7671 46.8579,34.9093 45.4543,34.9093 L28.8729,34.9093 L35.5457,46.92 C35.7429,47.2714 35.6143,47.715 35.2629,47.91 L34.9114,48 C34.6543,48 34.41,47.865 34.275,47.6271 L27.2079,34.9093 L24.7264,34.9093 L24.7264,47.2736 C24.7264,47.6743 24.4029,48 24,48 C23.5993,48 23.2736,47.6743 23.2736,47.2736 L23.2736,34.9093 L20.79,34.9093 L13.725,47.6271 C13.5943,47.865 13.3457,48 13.0886,48 L12.7371,47.91 C12.3857,47.715 12.2614,47.2714 12.4543,46.92 L19.1271,34.9093 L2.54357,34.9093 C1.14214,34.9093 0,33.7671 0,32.3657 C0,31.0843 0.951429,30.0343 2.18357,29.8564 L2.18357,5.055 C0.951429,4.87714 0,3.825 0,2.54571 C0,1.14214 1.14214,0 2.54357,0 L45.4543,0 C46.8579,0 48,1.14214 48,2.54571 C48,3.825 47.0486,4.87714 45.8186,5.055 Z M2.54357,1.455 C1.94357,1.455 1.455,1.94357 1.455,2.54571 C1.455,3.14786 1.94357,3.63643 2.54357,3.63643 L2.90786,3.63643 L45.09,3.63643 L45.4543,3.63643 C46.0564,3.63643 46.545,3.14786 46.545,2.54571 C46.545,1.94357 46.0564,1.455 45.4543,1.455 L2.54357,1.455 Z M2.54357,33.4564 L45.4543,33.4564 C46.0564,33.4564 46.545,32.9657 46.545,32.3657 C46.545,31.7614 46.0564,31.2729 45.4543,31.2729 L2.54357,31.2729 C1.94357,31.2729 1.455,31.7614 1.455,32.3657 C1.455,32.9657 1.94357,33.4564 2.54357,33.4564 Z M8.72571,25.3457 L11.6786,25.3457 L11.6786,29.8179 L8.72571,29.8179 L8.72571,25.3457 Z M8.72571,23.8929 L11.6786,23.8929 L11.6786,20.9121 L8.72571,20.9121 L8.72571,23.8929 Z M17.925,20.9786 L20.8779,20.9786 L20.8779,29.8179 L17.925,29.8179 L17.925,20.9786 Z M17.925,19.5257 L20.8779,19.5257 L20.8779,13.2771 L17.925,13.2771 L17.925,19.5257 Z M27.1221,23.5779 L30.0729,23.5779 L30.0729,29.8179 L27.1221,29.8179 L27.1221,23.5779 Z M27.1221,22.1229 L30.0729,22.1229 L30.0729,17.8221 L27.1221,17.8221 L27.1221,22.1229 Z M40.7271,18.0043 L40.7271,8.61857 C40.7271,8.21571 40.4014,7.89 40.0007,7.89 L35.5929,7.89 C35.1921,7.89 34.8664,8.21571 34.8664,8.61857 L34.8664,29.8179 L31.53,29.8179 L31.53,22.8514 L31.53,17.0936 C31.53,16.6907 31.2043,16.3671 30.8036,16.3671 L26.3957,16.3671 C25.995,16.3671 25.6693,16.6907 25.6693,17.0936 L25.6693,29.8179 L22.3307,29.8179 L22.3307,20.25 L22.3307,12.5486 C22.3307,12.1479 22.0071,11.8221 21.6043,11.8221 L17.1964,11.8221 C16.7957,11.8221 16.4721,12.1479 16.4721,12.5486 L16.4721,29.8179 L13.1336,29.8179 L13.1336,24.6193 L13.1336,20.1857 C13.1336,19.7829 12.81,19.4571 12.4071,19.4571 L7.99929,19.4571 C7.59857,19.4571 7.275,19.7829 7.275,20.1857 L7.275,29.8179 L3.63643,29.8179 L3.63643,5.09143 L44.3636,5.09143 L44.3636,29.8179 L40.7271,29.8179 L40.7271,18.0043 Z M39.2721,18.7286 L36.3214,18.7286 L36.3214,29.8179 L39.2721,29.8179 L39.2721,18.7286 Z M39.2721,17.2779 L36.3214,17.2779 L36.3214,9.345 L39.2721,9.345 L39.2721,17.2779 Z" id="Shape"></path>
                </g>
            </g>
        </g>
    </g>
</svg>