<?xml version="1.0" encoding="UTF-8"?>
<svg width="118px" height="118px" viewBox="0 0 118 118" version="1.1" xmlns="http://www.w3.org/2000/svg" xmlns:xlink="http://www.w3.org/1999/xlink">
    <!-- Generator: Sketch 51.1 (57501) - http://www.bohemiancoding.com/sketch -->
    <title>Group 21</title>
    <desc>Created with Sketch.</desc>
    <defs>
        <circle id="path-1" cx="47" cy="47" r="47"></circle>
        <filter x="-22.3%" y="-16.0%" width="144.7%" height="144.7%" filterUnits="objectBoundingBox" id="filter-2">
            <feOffset dx="0" dy="6" in="SourceAlpha" result="shadowOffsetOuter1"></feOffset>
            <feGaussianBlur stdDeviation="6" in="shadowOffsetOuter1" result="shadowBlurOuter1"></feGaussianBlur>
            <feColorMatrix values="0 0 0 0 0   0 0 0 0 0   0 0 0 0 0  0 0 0 0.0240885417 0" type="matrix" in="shadowBlurOuter1"></feColorMatrix>
        </filter>
    </defs>
    <g id="design" stroke="none" stroke-width="1" fill="none" fill-rule="evenodd">
        <g id="homepage" transform="translate(-1086.000000, -2137.000000)">
            <g id="Group-21" transform="translate(1098.000000, 2143.000000)">
                <g id="Oval-2">
                    <use fill="black" fill-opacity="1" filter="url(#filter-2)" xlink:href="#path-1"></use>
                    <use fill="#FFFFFF" fill-rule="evenodd" xlink:href="#path-1"></use>
                </g>
                <g id="money" transform="translate(24.000000, 23.000000)" fill="#F25F3E">
                    <path d="M46.7479,10.5665 C46.7479,15.7777 42.5092,20.0184 37.3002,20.0184 C32.087,20.0184 27.8505,15.7777 27.8505,10.5665 C27.8505,5.3575 32.087,1.1189 37.3002,1.1189 C42.5092,1.1189 46.7479,5.3575 46.7479,10.5665 Z M45.3329,10.5665 C45.3329,6.13803 41.7287,2.53594 37.3002,2.53594 C32.8696,2.53594 29.2654,6.13803 29.2654,10.5665 C29.2654,14.9972 32.8696,18.6013 37.3002,18.6013 C41.7287,18.6013 45.3329,14.9972 45.3329,10.5665 Z" id="Shape"></path>
                    <path d="M0.709553,16.1492 L7.18329,16.1492 C7.57564,16.1492 7.89286,16.4643 7.89286,16.8587 L7.89286,47.0382 C7.89286,47.4285 7.57564,47.7457 7.18329,47.7457 L0.709553,47.7457 C0.317206,47.7457 0.0020752,47.4285 0.0020752,47.0382 L0.0020752,16.8587 C0.0020752,16.4643 0.317206,16.1492 0.709553,16.1492 Z M1.41912,46.3286 L6.4779,46.3286 L6.4779,17.5662 L1.41912,17.5662 L1.41912,46.3286 Z" id="Shape"></path>
                    <path d="M13.6591,24.1152 L20.137,24.1152 C20.5294,24.1152 20.8445,24.4304 20.8445,24.8206 L20.8445,47.0384 C20.8445,47.4286 20.5294,47.7458 20.137,47.7458 L13.6591,47.7458 C13.2689,47.7458 12.9537,47.4286 12.9537,47.0384 L12.9537,24.8206 C12.9537,24.4304 13.2689,24.1152 13.6591,24.1152 Z M14.3687,46.3288 L19.4296,46.3288 L19.4296,25.5302 L14.3687,25.5302 L14.3687,46.3288 Z" id="Shape"></path>
                    <path d="M26.6129,33.4939 L33.0887,33.4939 C33.479,33.4939 33.7962,33.8111 33.7962,34.2035 L33.7962,47.0382 C33.7962,47.4285 33.479,47.7457 33.0887,47.7457 L26.6129,47.7457 C26.2205,47.7457 25.9054,47.4285 25.9054,47.0382 L25.9054,34.2035 C25.9054,33.8111 26.2205,33.4939 26.6129,33.4939 Z M27.3204,46.3287 L32.3812,46.3287 L32.3812,34.9089 L27.3204,34.9089 L27.3204,46.3287 Z" id="Shape"></path>
                    <path d="M39.5645,42.6702 L46.0404,42.6702 C46.4306,42.6702 46.7478,42.9874 46.7478,43.3776 L46.7478,47.0382 C46.7478,47.4284 46.4306,47.7456 46.0404,47.7456 L39.5645,47.7456 C39.1743,47.7456 38.8571,47.4284 38.8571,47.0382 L38.8571,43.3776 C38.8571,42.9874 39.1743,42.6702 39.5645,42.6702 Z M40.272,46.3286 L45.3329,46.3286 L45.3329,44.0872 L40.272,44.0872 L40.272,46.3286 Z" id="Shape"></path>
                    <path d="M42.8473,41.0278 L42.9913,41.0132 C43.2063,40.9694 43.3878,40.8254 43.4859,40.6292 L46.0132,35.4014 C46.1823,35.0487 46.0362,34.6251 45.6856,34.456 C45.3308,34.287 44.9092,34.4352 44.7402,34.7858 L43.0831,38.2063 L40.2511,26.7531 C40.2073,26.5611 40.08,26.3983 39.9068,26.3023 L39.3454,26.2522 L30.3444,29.2031 L27.2974,17.535 L26.9593,17.0967 L26.4063,17.0383 L17.3718,19.7805 L14.3353,9.71932 L13.9931,9.29985 L13.4525,9.24767 L4.42645,12.0087 L1.38993,1.50924 C1.2814,1.13359 0.889056,0.918629 0.513404,1.02715 C0.135665,1.13567 -0.0813784,1.52593 0.0292303,1.90367 L3.2661,13.0939 L3.61045,13.5197 L4.15306,13.576 L13.1833,10.8108 L16.2198,20.872 L16.5642,21.2915 L17.1047,21.3437 L26.112,18.6077 L29.1652,30.2905 L29.5117,30.7308 L30.071,30.783 L39.0616,27.8341 L41.6619,38.3712 L38.903,36.0004 C38.6087,35.7478 38.16,35.7791 37.9033,36.0755 C37.6487,36.3739 37.6842,36.8205 37.9805,37.0731 L42.3861,40.8567 L42.8473,41.0278 Z" id="Shape" fill-rule="nonzero"></path>
                    <path d="M37.6138325,15.1406111 C36.6108804,15.1406111 35.7942113,14.4320743 35.7942113,13.5624964 C35.7942113,13.1277626 35.4445724,12.7804385 35.0121534,12.7804385 C34.5842536,12.7804385 34.2323,13.1277626 34.2323,13.5624964 C34.2323,15.0416275 35.3456992,16.2792521 36.8294598,16.6104831 L36.8294598,17.2201466 C36.8294598,17.6525657 37.1814134,18 37.6138325,18 C38.0463618,18 38.3936859,17.6525657 38.3936859,17.2201466 L38.3936859,16.6104831 C39.8774465,16.2792521 40.9931604,15.0416275 40.9931604,13.5624964 C40.9931604,12.0420303 40.1028599,10.4179071 37.6138325,10.4179071 C36.4085043,10.4179071 35.7942113,9.88651558 35.7942113,8.83754388 C35.7942113,7.96569535 36.6108804,7.25718063 37.6138325,7.25718063 C38.6167846,7.25718063 39.4311389,7.96569535 39.4311389,8.83754388 C39.4311389,9.27001805 39.7785732,9.61967896 40.2109923,9.61967896 C40.6412068,9.61967896 40.9931604,9.27001805 40.9931604,8.83754388 C40.9931604,7.35379427 39.8774465,6.11849548 38.3936859,5.78724242 L38.3936859,5.17763406 C38.3936859,4.74517091 38.0463618,4.39551 37.6138325,4.39551 C37.1814134,4.39551 36.8294598,4.74517091 36.8294598,5.17763406 L36.8294598,5.78724242 C35.3456992,6.11849548 34.2323,7.35379427 34.2323,8.83754388 C34.2323,10.3557944 35.1202857,11.9798625 37.6138325,11.9798625 C38.8192709,11.9798625 39.4311389,12.5135799 39.4311389,13.5624964 C39.4311389,14.4320743 38.6167846,15.1406111 37.6138325,15.1406111 Z" id="Shape" fill-rule="nonzero"></path>
                </g>
            </g>
        </g>
    </g>
</svg>