<?xml version="1.0" encoding="UTF-8"?>
<svg width="118px" height="118px" viewBox="0 0 118 118" version="1.1" xmlns="http://www.w3.org/2000/svg" xmlns:xlink="http://www.w3.org/1999/xlink">
    <!-- Generator: Sketch 51.1 (57501) - http://www.bohemiancoding.com/sketch -->
    <title>Group 25</title>
    <desc>Created with Sketch.</desc>
    <defs>
        <circle id="path-1" cx="47" cy="47" r="47"></circle>
        <filter x="-22.3%" y="-16.0%" width="144.7%" height="144.7%" filterUnits="objectBoundingBox" id="filter-2">
            <feOffset dx="0" dy="6" in="SourceAlpha" result="shadowOffsetOuter1"></feOffset>
            <feGaussianBlur stdDeviation="6" in="shadowOffsetOuter1" result="shadowBlurOuter1"></feGaussianBlur>
            <feColorMatrix values="0 0 0 0 0   0 0 0 0 0   0 0 0 0 0  0 0 0 0.0240885417 0" type="matrix" in="shadowBlurOuter1"></feColorMatrix>
        </filter>
    </defs>
    <g id="design" stroke="none" stroke-width="1" fill="none" fill-rule="evenodd">
        <g id="homepage" transform="translate(-661.000000, -2137.000000)">
            <g id="Group-25" transform="translate(673.000000, 2143.000000)">
                <g id="Oval-2">
                    <use fill="black" fill-opacity="1" filter="url(#filter-2)" xlink:href="#path-1"></use>
                    <use fill="#FFFFFF" fill-rule="evenodd" xlink:href="#path-1"></use>
                </g>
                <g id="clock" transform="translate(25.000000, 21.000000)">
                    <path d="M36.5848,13.0933 L36.036,13.916 C40.5171,17.8702 43.3493,23.6357 43.3493,30.051 C43.3493,41.9414 33.6253,51.6151 21.6758,51.6151 C9.724,51.6151 0,41.9414 0,30.051 C0,23.6357 2.83221,17.8702 7.31326,13.916 L6.76442,13.0933 C6.336,12.4573 6.1901,11.6946 6.34063,10.948 C6.49116,10.199 6.92421,9.55152 7.56337,9.12983 C8.26274,8.67126 9.02926,8.52148 9.77958,8.67356 C10.5322,8.82335 11.1783,9.25426 11.6044,9.89256 L12.1347,10.6899 C14.0429,9.7543 16.1063,9.09065 18.2739,8.74961 L18.2739,6.307 L16.4537,6.307 C16.0183,6.307 15.6663,5.95904 15.6663,5.52583 C15.6663,2.44491 18.1257,0 21.1478,0 L22.2015,0 C25.2236,0 27.6829,2.44491 27.6829,5.45209 C27.6829,5.8853 27.3309,6.307 26.8956,6.307 L25.0707,6.307 L25.0707,8.74961 C27.2429,9.09065 29.304,9.7543 31.2122,10.6899 L31.7448,9.89256 C32.1709,9.25426 32.8194,8.82335 33.5697,8.67356 C34.3223,8.51917 35.0888,8.67126 35.728,9.09296 C36.4227,9.55152 36.8581,10.199 37.0086,10.948 C37.1615,11.6946 37.0109,12.4573 36.5848,13.0933 Z M21.1478,1.56465 C19.2326,1.56465 17.6394,2.93574 17.3059,4.74235 L26.0364,4.74235 C25.6798,2.9127 24.0958,1.56465 22.2015,1.56465 L21.1478,1.56465 Z M19.8486,6.307 L23.5006,6.307 L23.5006,8.56757 C22.8962,8.51457 22.2895,8.4823 21.6758,8.4823 C21.0598,8.4823 20.4531,8.51457 19.8486,8.56757 L19.8486,6.307 Z M1.57242,30.051 C1.57242,41.0796 10.5878,50.0527 21.6758,50.0527 C32.7592,50.0527 41.7768,41.0796 41.7768,30.051 C41.7768,19.0201 32.7592,10.047 21.6758,10.047 C10.5878,10.047 1.57242,19.0201 1.57242,30.051 Z M7.88063,11.2567 C7.81347,11.5955 7.88063,11.9388 8.07284,12.2269 L8.53137,12.9136 C9.23768,12.379 9.97874,11.8835 10.7476,11.4365 L10.2937,10.759 C10.0992,10.471 9.80968,10.2728 9.46926,10.206 L9.2099,10.1783 C8.95516,10.1783 8.70737,10.2543 8.492,10.3972 C8.14695,10.623 7.95011,10.9157 7.88063,11.2567 Z M33.0556,10.759 C33.2478,10.471 33.5396,10.2728 33.88,10.206 C34.2204,10.1345 34.5678,10.206 34.9105,10.4341 C35.2023,10.623 35.3992,10.9157 35.4686,11.2567 C35.5358,11.5955 35.4686,11.9388 35.2764,12.2269 L34.8156,12.9136 C34.1116,12.379 33.3705,11.8835 32.5994,11.4365 L33.0556,10.759 Z" id="Shape" fill="#F36646"></path>
                    <path d="M4.52045,30.051 C4.52045,20.6377 12.2158,12.9827 21.6758,12.9827 C31.1335,12.9827 38.8289,20.6377 38.8289,30.051 C38.8289,39.4619 31.1335,47.1193 21.6758,47.1193 C12.2158,47.1193 4.52045,39.4619 4.52045,30.051 Z M22.4609,41.6971 L22.4609,45.5154 C30.4249,45.1168 36.8164,38.7568 37.2171,30.8321 L33.3798,30.8321 C32.9444,30.8321 32.5924,30.4796 32.5924,30.051 C32.5924,29.6154 32.9444,29.2675 33.3798,29.2675 L37.2171,29.2675 C36.8164,21.3451 30.4249,14.9828 22.4609,14.5842 L22.4609,18.4025 C22.4609,18.8334 22.1089,19.1837 21.6758,19.1837 C21.2404,19.1837 20.8884,18.8334 20.8884,18.4025 L20.8884,14.5842 C12.9244,14.9828 6.53287,21.3451 6.13224,29.2675 L9.9695,29.2675 C10.4049,29.2675 10.7569,29.6154 10.7569,30.051 C10.7569,30.4796 10.4049,30.8321 9.9695,30.8321 L6.13224,30.8321 C6.53287,38.7568 12.9244,45.1168 20.8884,45.5154 L20.8884,41.6971 C20.8884,41.2639 21.2404,40.916 21.6758,40.916 C22.1089,40.916 22.4609,41.2639 22.4609,41.6971 Z" id="Shape" fill="#F25F3E"></path>
                    <path d="M22.7503,27.4955 L27.3611,21.866 C27.632,21.5318 28.1299,21.4788 28.4657,21.753 C28.8015,22.025 28.8524,22.5181 28.5792,22.8522 L23.9684,28.4864 C24.2764,28.9311 24.4571,29.468 24.4571,30.051 C24.4571,31.5765 23.2088,32.8185 21.6758,32.8185 C20.1404,32.8185 18.8922,31.5765 18.8922,30.051 C18.8922,28.5232 20.1404,27.2812 21.6758,27.2812 C22.0579,27.2812 22.4192,27.3572 22.7503,27.4955 Z M20.4646,30.051 C20.4646,30.7147 21.0065,31.2539 21.6758,31.2539 C22.3427,31.2539 22.8846,30.7147 22.8846,30.051 C22.8846,29.385 22.3427,28.8435 21.6758,28.8435 C21.0065,28.8435 20.4646,29.385 20.4646,30.051 Z" id="Shape" fill="#F36646"></path>
                </g>
            </g>
        </g>
    </g>
</svg>