<?xml version="1.0" encoding="UTF-8"?>
<svg width="118px" height="118px" viewBox="0 0 118 118" version="1.1" xmlns="http://www.w3.org/2000/svg" xmlns:xlink="http://www.w3.org/1999/xlink">
    <!-- Generator: Sketch 51.1 (57501) - http://www.bohemiancoding.com/sketch -->
    <title>Group 22</title>
    <desc>Created with Sketch.</desc>
    <defs>
        <circle id="path-1" cx="47" cy="47" r="47"></circle>
        <filter x="-22.3%" y="-16.0%" width="144.7%" height="144.7%" filterUnits="objectBoundingBox" id="filter-2">
            <feOffset dx="0" dy="6" in="SourceAlpha" result="shadowOffsetOuter1"></feOffset>
            <feGaussianBlur stdDeviation="6" in="shadowOffsetOuter1" result="shadowBlurOuter1"></feGaussianBlur>
            <feColorMatrix values="0 0 0 0 0   0 0 0 0 0   0 0 0 0 0  0 0 0 0.0240885417 0" type="matrix" in="shadowBlurOuter1"></feColorMatrix>
        </filter>
    </defs>
    <g id="design" stroke="none" stroke-width="1" fill="none" fill-rule="evenodd">
        <g id="homepage" transform="translate(-235.000000, -2457.000000)">
            <g id="Group-22" transform="translate(247.000000, 2463.000000)">
                <g id="Oval-2">
                    <use fill="black" fill-opacity="1" filter="url(#filter-2)" xlink:href="#path-1"></use>
                    <use fill="#FFFFFF" fill-rule="evenodd" xlink:href="#path-1"></use>
                </g>
                <g id="businessman" transform="translate(26.000000, 23.000000)" fill="#F15D3B">
                    <path d="M32.9604,29.1008 C34.4939,29.5851 35.9248,30.1444 37.218,30.7572 C39.6363,31.9057 42,33.3264 42,36.8834 L42,42.1567 C42,42.3688 41.9061,42.5702 41.7444,42.7052 C41.4997,42.9174 35.7719,47.6507 22.468,47.9786 L22.4484,47.9786 C21.9743,47.9914 21.4915,48 21,48 C20.5063,48 20.0235,47.9914 19.5516,47.9786 L19.5364,47.9786 C6.22594,47.6507 0.502445,42.9174 0.257776,42.7052 C0.0917508,42.5702 0,42.3688 0,42.1567 L0,36.8834 C0,33.3264 2.36367,31.9057 4.78196,30.7572 C6.07084,30.1465 7.49735,29.5894 9.02216,29.1051 C9.84791,28.8416 10.5448,28.6444 11.2067,28.4752 L11.2438,28.4687 L11.2548,28.4644 L11.2635,28.4623 C12.0849,28.2566 12.9216,28.0895 13.7626,27.9416 C14.702,26.9795 15.1695,25.9103 15.3792,24.9439 C13.341,23.384 11.779,21.0441 10.9314,18.2585 C10.547,18.2306 10.1734,18.0763 9.83481,17.8042 C9.11609,17.2214 8.6202,16.1371 8.50879,14.905 C8.33621,13.0066 9.08769,11.4552 10.2826,11.1466 C10.3001,10.5874 10.3416,10.0538 10.3962,9.53529 L10.4006,9.501 C11.0844,3.19914 14.6342,0 20.9934,0 C27.3505,0 30.9091,3.19271 31.5863,9.49029 L31.5885,9.49243 L31.5863,9.49672 C31.6322,9.90384 31.6671,10.3195 31.6846,10.7502 L31.6999,11.1466 C32.8948,11.4552 33.6485,13.0066 33.4759,14.905 C33.3645,16.1371 32.8664,17.2214 32.1455,17.8042 C31.8113,18.0763 31.4356,18.2306 31.0511,18.2585 C30.2057,21.0462 28.6437,23.384 26.6033,24.9439 C26.8153,25.9081 27.2806,26.9774 28.2265,27.9438 C29.0741,28.0916 29.9151,28.2566 30.7409,28.4644 L30.8108,28.4794 C31.4661,28.6466 32.1477,28.8416 32.9604,29.1008 Z M30.0243,8.98031 C29.2772,3.8634 26.3762,1.45494 20.9934,1.45494 C15.945,1.45494 13.0723,3.57627 12.1177,8.06535 C15.6129,5.95259 20.1196,5.84117 23.9994,7.81037 C25.9327,8.79175 27.9534,9.18388 30.0243,8.98031 Z M12.1897,17.2599 C12.1351,17.05 11.9866,16.8742 11.7856,16.7821 L11.471,16.7114 L11.1521,16.7843 L11.0734,16.8057 L10.7807,16.6835 C10.4705,16.4307 10.0773,15.7814 9.98554,14.7743 C9.86321,13.448 10.3788,12.578 10.6955,12.5459 L10.7938,12.5652 C11.0166,12.6337 11.2635,12.5909 11.4536,12.4537 C11.6436,12.3187 11.7528,12.1002 11.7528,11.8709 C11.7528,11.7052 11.7566,11.5432 11.7603,11.3831 L11.7603,11.383 L11.7603,11.3829 L11.7603,11.3828 L11.7638,11.2302 C11.7747,10.8188 11.7987,10.4267 11.8293,10.0431 C11.98,9.9167 12.2225,9.73028 12.5677,9.501 C15.661,7.45895 19.7788,7.30682 23.3178,9.10459 C24.6482,9.77742 26.6143,10.4867 29.0107,10.4867 C29.3886,10.4867 29.7775,10.461 30.1729,10.4245 L30.2035,10.8145 C30.2188,11.1595 30.2275,11.5066 30.2275,11.8709 C30.2275,12.1002 30.3433,12.3209 30.5312,12.4559 C30.7212,12.593 30.9659,12.6316 31.1931,12.5652 L31.2848,12.5459 C31.6059,12.5823 32.1193,13.4501 31.997,14.7743 C31.9052,15.7814 31.512,16.4307 31.204,16.6835 L30.9135,16.8057 L30.8304,16.7843 C30.6295,16.69 30.3979,16.69 30.1991,16.7821 C29.9959,16.8742 29.8474,17.05 29.7928,17.2599 C29.05,20.1334 27.5056,22.5247 25.4455,23.9925 C22.728,25.9274 19.2458,25.9253 16.5326,23.9882 C14.4748,22.5183 12.9325,20.1291 12.1897,17.2599 Z M20.9934,26.9259 C19.5014,26.9259 18.0334,26.5338 16.6833,25.7988 C16.395,26.7888 15.8751,27.843 14.9707,28.8116 C15.4032,29.9044 18.5686,31.3036 21,32 C23.4227,31.3036 26.5837,29.9087 27.0293,28.8201 C26.1118,27.8452 25.5875,26.7909 25.2992,25.801 C23.9469,26.5338 22.4789,26.9259 20.9934,26.9259 Z M1.4833,36.8834 C1.4833,34.3956 2.81151,33.3092 5.42859,32.0643 C6.65411,31.4836 8.01727,30.9522 9.47873,30.4894 C9.83481,30.3758 10.1647,30.2751 10.4792,30.1851 C10.1363,32.9021 9.87194,39.8704 14.7063,46.1722 C6.69344,45.1887 2.51659,42.5402 1.4833,41.801 L1.4833,36.8834 Z M40.5145,41.801 C39.4856,42.5402 35.3131,45.1823 27.3242,46.1679 C32.1499,39.8725 31.8899,32.915 31.5492,30.1915 C31.8484,30.2794 32.1652,30.3758 32.5038,30.4829 C33.9696,30.95 35.3393,31.4793 36.5714,32.0643 C39.1885,33.3092 40.5145,34.3956 40.5145,36.8834 L40.5145,41.801 Z M17.1421,35.0856 L17.1421,35.0877 L16.4474,35.6813 C15.6282,34.9742 13.8063,33.1292 12.3907,29.7008 L12.7949,29.6108 C13.07,29.5515 13.3452,29.5 13.6184,29.4489 L13.6185,29.4489 L13.6578,29.4415 C14.4966,31.1622 17.614,32.4307 19.5123,33.0607 L17.1421,35.0856 Z M29.6005,29.7008 C29.1833,29.6087 28.7617,29.523 28.3379,29.448 C27.4968,31.1643 24.386,32.4307 22.4877,33.0607 L24.8557,35.0856 L24.8754,35.1091 L25.5438,35.6813 C26.3652,34.9742 28.185,33.1292 29.6005,29.7008 Z M16.6528,46.2386 C12.2618,41.1753 11.7157,35.3256 11.8358,32.0043 C13.7582,35.6898 15.9472,37.1598 16.0564,37.2326 L16.4693,37.3548 L16.9542,37.1748 L17.5441,36.6712 L18.8766,38.2461 L17.4916,46.4229 C17.4066,46.4179 17.32,46.4133 17.2333,46.4087 C17.0639,46.3997 16.894,46.3907 16.7336,46.3779 L16.6528,46.2386 Z M20.9956,46.5429 L21,46.5429 C21.6925,46.5429 22.3632,46.5279 23.0185,46.5065 L21.6029,38.1562 C21.5702,37.9483 21.627,37.7362 21.7646,37.5733 L23.3331,35.7198 L20.9978,33.7249 L18.6625,35.7155 L20.2332,37.5733 C20.373,37.7362 20.432,37.9483 20.3949,38.1562 L18.9815,46.5065 C19.6347,46.5279 20.3031,46.5429 20.9956,46.5429 Z M25.3756,46.2387 L25.2992,46.3758 C25.1199,46.3907 24.9322,46.4004 24.747,46.41 L24.7467,46.41 C24.6657,46.4142 24.5852,46.4184 24.5062,46.4229 L23.1234,38.2462 L24.4538,36.6777 L25.0348,37.1748 L25.5242,37.3548 L25.9349,37.2326 C26.0463,37.1598 28.257,35.6706 30.1882,31.9421 C30.3171,35.2527 29.7928,41.1453 25.3756,46.2387 Z" id="Shape"></path>
                </g>
            </g>
        </g>
    </g>
</svg>