<?xml version="1.0" encoding="UTF-8"?>
<svg width="32px" height="32px" viewBox="0 0 32 32" version="1.1" xmlns="http://www.w3.org/2000/svg" xmlns:xlink="http://www.w3.org/1999/xlink">
    <!-- Generator: Sketch 51.1 (57501) - http://www.bohemiancoding.com/sketch -->
    <title>69406</title>
    <desc>Created with Sketch.</desc>
    <defs></defs>
    <g id="design" stroke="none" stroke-width="1" fill="none" fill-rule="evenodd">
        <g id="homepage" transform="translate(-1251.000000, -5371.000000)" fill="#FFFFFF" fill-rule="nonzero">
            <g id="69406" transform="translate(1251.000000, 5371.000000)">
                <path d="M18.784,13.63072 C17.424,13.63072 16.81664,14.37824 16.4768,14.90304 L16.4768,13.81248 L13.91552,13.81248 C13.9488,14.5344 13.91552,21.51872 13.91552,21.51872 L16.4768,21.51872 L16.4768,17.21344 C16.4768,16.98368 16.49152,16.75264 16.56064,16.58816 C16.74624,16.12736 17.16736,15.65056 17.8752,15.65056 C18.80192,15.65056 19.17248,16.35712 19.17248,17.39392 L19.17248,21.5168 L21.73376,21.5168 L21.7344,21.5168 L21.7344,17.0976 C21.73312,14.73216 20.46912,13.63072 18.784,13.63072 Z M16.47488,14.92992 L16.45888,14.92992 C16.464,14.92096 16.47168,14.91264 16.47488,14.90368 L16.47488,14.92992 Z" id="Shape"></path>
                <rect id="Rectangle-path" x="9.93472" y="13.81248" width="2.56128" height="7.70624"></rect>
                <path d="M15.88864,0 C7.12768,0 0,7.12768 0,15.88864 C0,24.64896 7.12768,31.77728 15.88864,31.77728 C24.64896,31.77728 31.77728,24.64896 31.77728,15.88864 C31.77728,7.12768 24.65024,0 15.88864,0 Z M24.31424,23.0752 C24.31424,23.75104 23.7536,24.2976 23.06048,24.2976 L8.60864,24.2976 C7.91744,24.2976 7.35616,23.75104 7.35616,23.0752 L7.35616,8.45504 C7.35616,7.77984 7.91744,7.23264 8.60864,7.23264 L23.06048,7.23264 C23.75296,7.23264 24.31424,7.78048 24.31424,8.45504 L24.31424,23.0752 Z" id="Shape"></path>
                <path d="M11.23264,10.09728 C10.35712,10.09728 9.78368,10.672 9.78368,11.42848 C9.78368,12.16768 10.33984,12.75968 11.19872,12.75968 L11.21536,12.75968 C12.1088,12.75968 12.66496,12.16768 12.66496,11.42848 C12.64768,10.67264 12.10944,10.09728 11.23264,10.09728 Z" id="Shape"></path>
            </g>
        </g>
    </g>
</svg>