<?xml version="1.0" encoding="UTF-8"?>
<svg width="118px" height="118px" viewBox="0 0 118 118" version="1.1" xmlns="http://www.w3.org/2000/svg" xmlns:xlink="http://www.w3.org/1999/xlink">
    <!-- Generator: Sketch 51.1 (57501) - http://www.bohemiancoding.com/sketch -->
    <title>Group 4</title>
    <desc>Created with Sketch.</desc>
    <defs>
        <circle id="path-1" cx="47" cy="47" r="47"></circle>
        <filter x="-22.3%" y="-16.0%" width="144.7%" height="144.7%" filterUnits="objectBoundingBox" id="filter-2">
            <feOffset dx="0" dy="6" in="SourceAlpha" result="shadowOffsetOuter1"></feOffset>
            <feGaussianBlur stdDeviation="6" in="shadowOffsetOuter1" result="shadowBlurOuter1"></feGaussianBlur>
            <feColorMatrix values="0 0 0 0 0   0 0 0 0 0   0 0 0 0 0  0 0 0 0.0240885417 0" type="matrix" in="shadowBlurOuter1"></feColorMatrix>
        </filter>
    </defs>
    <g id="design" stroke="none" stroke-width="1" fill="none" fill-rule="evenodd">
        <g id="find_work_page" transform="translate(-235.000000, -907.000000)">
            <g id="Group-4" transform="translate(247.000000, 913.000000)">
                <g id="Oval-2">
                    <use fill="black" fill-opacity="1" filter="url(#filter-2)" xlink:href="#path-1"></use>
                    <use fill="#FFFFFF" fill-rule="evenodd" xlink:href="#path-1"></use>
                </g>
                <g id="1243560" transform="translate(25.000000, 27.000000)" fill="#F15D3B" fill-rule="nonzero">
                    <path d="M42.75,6.75 L33,6.75 L33,3.75 C32.9974365,1.67980959 31.3201904,0.00256348125 29.25,0 L15.75,0 C13.6798096,0.00256348125 12.0025635,1.67980959 12,3.75 L12,6.75 L2.25,6.75 C1.00744631,6.75 0,7.75744631 0,9 L0,25.6948242 C0.0047607375,26.6462402 0.604248,27.4925537 1.5,27.8122558 L1.5,38.25 C1.5,39.4925537 2.50744631,40.5 3.75,40.5 L41.25,40.5 C42.4925537,40.5 43.5,39.4925537 43.5,38.25 L43.5,27.8129883 C44.395752,27.4929199 44.9956055,26.6462402 45,25.6948242 L45,9 C45,7.75744631 43.9925537,6.75 42.75,6.75 Z M13.5,3.75 C13.5,2.50744631 14.5074463,1.5 15.75,1.5 L29.25,1.5 C30.4925537,1.5 31.5,2.50744631 31.5,3.75 L31.5,6.75 L30,6.75 L30,3.75 C30,3.33581541 29.6641846,3 29.25,3 L15.75,3 C15.3358154,3 15,3.33581541 15,3.75 L15,6.75 L13.5,6.75 L13.5,3.75 Z M28.5,6.75 L16.5,6.75 L16.5,4.5 L28.5,4.5 L28.5,6.75 Z M42,38.25 C42,38.6641846 41.6641846,39 41.25,39 L3.75,39 C3.33581541,39 3,38.6641846 3,38.25 L3,28.0700683 L19.5,30.3457031 L19.5,32.25 C19.5,33.4925537 20.5074463,34.5 21.75,34.5 L23.25,34.5 C24.4925537,34.5 25.5,33.4925537 25.5,32.25 L25.5,30.3457031 L42,28.0700683 L42,38.25 Z M24,32.25 C24,32.6641846 23.6641846,33 23.25,33 L21.75,33 C21.3358154,33 21,32.6641846 21,32.25 L21,27.75 C21,27.3358154 21.3358154,27 21.75,27 L23.25,27 C23.6641846,27 24,27.3358154 24,27.75 L24,32.25 Z M43.5,25.6948242 C43.5003662,26.0687256 43.2253417,26.3858643 42.8551026,26.4382324 L42.6470947,26.4667969 L25.5,28.8314209 L25.5,27.75 C25.5,26.5074463 24.4925537,25.5 23.25,25.5 L21.75,25.5 C20.5074463,25.5 19.5,26.5074463 19.5,27.75 L19.5,28.8314209 L2.14562991,26.4382324 C1.77539062,26.3862305 1.49963381,26.0690918 1.5,25.6948242 L1.5,9 C1.5,8.58581541 1.83581541,8.25 2.25,8.25 L42.75,8.25 C43.1641846,8.25 43.5,8.58581541 43.5,9 L43.5,25.6948242 Z" id="Shape"></path>
                </g>
            </g>
        </g>
    </g>
</svg>