<?xml version="1.0" encoding="UTF-8"?>
<svg width="118px" height="118px" viewBox="0 0 118 118" version="1.1" xmlns="http://www.w3.org/2000/svg" xmlns:xlink="http://www.w3.org/1999/xlink">
    <!-- Generator: Sketch 51.1 (57501) - http://www.bohemiancoding.com/sketch -->
    <title>Group 6</title>
    <desc>Created with Sketch.</desc>
    <defs>
        <circle id="path-1" cx="47" cy="47" r="47"></circle>
        <filter x="-22.3%" y="-16.0%" width="144.7%" height="144.7%" filterUnits="objectBoundingBox" id="filter-2">
            <feOffset dx="0" dy="6" in="SourceAlpha" result="shadowOffsetOuter1"></feOffset>
            <feGaussianBlur stdDeviation="6" in="shadowOffsetOuter1" result="shadowBlurOuter1"></feGaussianBlur>
            <feColorMatrix values="0 0 0 0 0   0 0 0 0 0   0 0 0 0 0  0 0 0 0.0240885417 0" type="matrix" in="shadowBlurOuter1"></feColorMatrix>
        </filter>
    </defs>
    <g id="design" stroke="none" stroke-width="1" fill="none" fill-rule="evenodd">
        <g id="find_work_page" transform="translate(-661.000000, -907.000000)">
            <g id="Group-6" transform="translate(673.000000, 913.000000)">
                <g id="Oval-2">
                    <use fill="black" fill-opacity="1" filter="url(#filter-2)" xlink:href="#path-1"></use>
                    <use fill="#FFFFFF" fill-rule="evenodd" xlink:href="#path-1"></use>
                </g>
                <g id="1243557" transform="translate(27.000000, 24.000000)" fill="#F15E3C" fill-rule="nonzero">
                    <path d="M38.6114885,38.2084088 L34.037968,33.6333786 L34.037968,0.77294686 C34.037968,0.346089952 33.6918781,-5.68434189e-14 33.2650212,-5.68434189e-14 L10.0766154,-5.68434189e-14 C10.0618961,-5.68434189e-14 10.0479318,0.00754830918 10.0332126,0.00868056039 C9.96225845,0.0120772947 9.89205913,0.0264191304 9.82525662,0.0501962319 C9.80261169,0.0569897585 9.77996676,0.0649154589 9.75807671,0.0743508213 C9.67202599,0.111337585 9.59352357,0.163798261 9.52634357,0.228713816 L0.250981256,9.50407614 C0.186065797,9.56974638 0.133605024,9.64636174 0.0962409662,9.73052541 C0.0852958454,9.75468 0.0792571981,9.7784571 0.070576715,9.80336657 C0.0483091787,9.86752715 0.0350996135,9.93432966 0.0313255072,10.0018871 C0.0313255072,10.0188707 0.0211352657,10.03359 0.0211352657,10.0505737 L0.0211352657,39.4202899 C0.0211352657,39.8471468 0.367225217,40.1932367 0.794082126,40.1932367 L27.4777325,40.1932367 L32.0520078,44.7652475 C32.9181763,45.6412289 34.0998642,46.1326238 35.3317482,46.1296044 C37.2093901,46.1311141 38.9024758,45.0003774 39.6206975,43.2653986 C40.3385416,41.5307971 39.9399909,39.5342694 38.6107337,38.2084088 L38.6114885,38.2084088 Z M32.0591787,42.5894474 L20.0283062,30.562349 L24.4070803,26.1828201 L36.4341787,38.2144474 L32.0591787,42.5894474 Z M19.3742452,29.0296648 L18.3261624,24.482186 L22.8743961,25.5295139 L19.3742452,29.0296648 Z M9.3036685,2.63888889 L9.3036685,9.27536232 L2.66719507,9.27536232 L9.3036685,2.63888889 Z M1.5741999,38.647343 L1.5741999,10.821256 L10.0766154,10.821256 C10.5034723,10.821256 10.8495622,10.4751661 10.8495622,10.0483092 L10.8495622,1.54589372 L32.4920743,1.54589372 L32.4920743,32.08673 L24.9543328,24.5433273 L24.9456522,24.5380435 C24.881869,24.4772796 24.8082729,24.4278382 24.7278835,24.3919837 C24.7059933,24.3825483 24.6852356,24.3757548 24.6637228,24.3678291 C24.6365489,24.3557518 24.6089976,24.3451842 24.5806914,24.3361262 L17.4698068,22.6977657 C17.2097675,22.6373792 16.9372735,22.7155043 16.7485658,22.9038346 C16.5598581,23.0925422 16.4821105,23.3654136 16.5421196,23.6250755 L18.1808575,30.7363376 C18.1899155,30.7646437 18.2004831,30.7925725 18.2125604,30.8197464 C18.2204861,30.8405043 18.2265247,30.861262 18.236715,30.8823973 C18.2721921,30.963919 18.3223883,31.0386473 18.3842844,31.1024305 L18.3880586,31.1088466 L25.931084,38.647343 L1.5741999,38.647343 Z M37.5162289,43.6752717 C36.9380284,44.2553593 36.1526269,44.5814463 35.3336353,44.5814463 C34.5146437,44.5814463 33.7292421,44.2553593 33.1514191,43.6752717 L33.5152475,43.3106884 L37.5230223,39.3036685 C38.10311,39.8826238 38.4288194,40.6691576 38.4273098,41.488904 C38.4261776,42.3086503 38.0982035,43.094052 37.5162289,43.6714976 L37.5162289,43.6752717 Z" id="Shape"></path>
                    <path d="M6.98482792,15.4589372 L27.0814463,15.4589372 C27.5083032,15.4589372 27.8543931,15.1128472 27.8543931,14.6859903 C27.8543931,14.2591334 27.5083032,13.9130435 27.0814463,13.9130435 L6.98482792,13.9130435 C6.55797101,13.9130435 6.21188106,14.2591334 6.21188106,14.6859903 C6.21188106,15.1128472 6.55797101,15.4589372 6.98482792,15.4589372 Z" id="Shape"></path>
                    <path d="M6.98482792,20.0966184 L27.0814463,20.0966184 C27.5083032,20.0966184 27.8543931,19.7505284 27.8543931,19.3236715 C27.8543931,18.8968146 27.5083032,18.5507246 27.0814463,18.5507246 L6.98482792,18.5507246 C6.55797101,18.5507246 6.21188106,18.8968146 6.21188106,19.3236715 C6.21188106,19.7505284 6.55797101,20.0966184 6.98482792,20.0966184 Z" id="Shape"></path>
                    <path d="M12.3954559,23.1884058 L6.98482792,23.1884058 C6.55797101,23.1884058 6.21188106,23.5344957 6.21188106,23.9613527 C6.21188106,24.3882096 6.55797101,24.7342995 6.98482792,24.7342995 L12.3954559,24.7342995 C12.8223129,24.7342995 13.1684028,24.3882096 13.1684028,23.9613527 C13.1684028,23.5344957 12.8223129,23.1884058 12.3954559,23.1884058 Z" id="Shape"></path>
                </g>
            </g>
        </g>
    </g>
</svg>