<?xml version="1.0" encoding="UTF-8"?>
<svg width="118px" height="118px" viewBox="0 0 118 118" version="1.1" xmlns="http://www.w3.org/2000/svg" xmlns:xlink="http://www.w3.org/1999/xlink">
    <!-- Generator: Sketch 51.1 (57501) - http://www.bohemiancoding.com/sketch -->
    <title>Group 7</title>
    <desc>Created with Sketch.</desc>
    <defs>
        <circle id="path-1" cx="47" cy="47" r="47"></circle>
        <filter x="-22.3%" y="-16.0%" width="144.7%" height="144.7%" filterUnits="objectBoundingBox" id="filter-2">
            <feOffset dx="0" dy="6" in="SourceAlpha" result="shadowOffsetOuter1"></feOffset>
            <feGaussianBlur stdDeviation="6" in="shadowOffsetOuter1" result="shadowBlurOuter1"></feGaussianBlur>
            <feColorMatrix values="0 0 0 0 0   0 0 0 0 0   0 0 0 0 0  0 0 0 0.0240885417 0" type="matrix" in="shadowBlurOuter1"></feColorMatrix>
        </filter>
    </defs>
    <g id="design" stroke="none" stroke-width="1" fill="none" fill-rule="evenodd">
        <g id="find_work_page" transform="translate(-1086.000000, -907.000000)">
            <g id="Group-7" transform="translate(1098.000000, 913.000000)">
                <g id="Oval-2">
                    <use fill="black" fill-opacity="1" filter="url(#filter-2)" xlink:href="#path-1"></use>
                    <use fill="#FFFFFF" fill-rule="evenodd" xlink:href="#path-1"></use>
                </g>
                <g id="1243548" transform="translate(26.000000, 23.000000)" fill="#F15D3B" fill-rule="nonzero">
                    <path d="M41.25,25.5 L36.75,25.5 L36.75,24 C36.75,22.7574463 35.7425537,21.75 34.5,21.75 L28.5,21.75 C27.2574463,21.75 26.25,22.7574463 26.25,24 L26.25,25.5 L25.4619141,25.5 C25.0675049,20.4261474 20.8392334,16.5076904 15.75,16.5 L15.75,14.4748536 C17.5795898,13.612793 18.748169,11.772583 18.75,9.75 L18.75,3.75 C18.7474365,1.67980959 17.0701904,0.00256348125 15,0 L4.5,0 C4.08581541,0 3.75,0.335815406 3.75,0.75 L3.75,2.25 C3.75219731,4.03125 5.00500491,5.56604006 6.75,5.92492678 L6.75,9.75 C6.75146484,11.7729492 7.92004397,13.6131592 9.75,14.4748536 L9.75,16.5 C4.36779787,16.5062256 0.00622558125,20.8677979 0,26.25 L0,36 C0,36.4141846 0.335815406,36.75 0.75,36.75 L18,36.75 L18,41.25 C18.0025635,43.3201904 19.6798096,44.9974365 21.75,45 L41.25,45 C43.3201904,44.9974365 44.9974365,43.3201904 45,41.25 L45,29.25 C44.9974365,27.1798096 43.3201904,25.5025635 41.25,25.5 Z M27.75,24 C27.75,23.5858154 28.0858154,23.25 28.5,23.25 L34.5,23.25 C34.9141846,23.25 35.25,23.5858154 35.25,24 L35.25,25.5 L27.75,25.5 L27.75,24 Z M11.25,17.25 L11.25,14.946167 C11.4982911,14.9820557 11.7491455,15 12,15 L13.5,15 C13.7508545,15 14.0017089,14.9820557 14.25,14.946167 L14.25,19.5 C14.25,19.9141846 13.9141846,20.25 13.5,20.25 L12,20.25 C11.5858154,20.25 11.25,19.9141846 11.25,19.5 L11.25,17.25 Z M5.25,2.25 L5.25,1.5 L15,1.5 C16.2425537,1.5 17.25,2.50744631 17.25,3.75 L17.25,4.5 L7.5,4.5 C6.25744631,4.5 5.25,3.49255369 5.25,2.25 Z M8.25,9.75 L8.24999189,6 L17.2500036,6 L17.25,9.75 C17.2521973,11.3411865 16.2462158,12.7595214 14.7436523,13.2832031 C14.3448487,13.4274902 13.9240723,13.5007324 13.5,13.5 L12,13.5 C11.5726318,13.5003662 11.1481933,13.4256592 10.7468261,13.2795411 C9.24865725,12.7536621 8.24670413,11.3378906 8.25,9.75 Z M1.5,35.25 L1.5,26.25 C1.50549319,21.6958008 5.19580078,18.0054932 9.75,18 L9.75,19.5 C9.75,20.7425537 10.7574463,21.75 12,21.75 L13.5,21.75 C14.7425537,21.75 15.75,20.7425537 15.75,19.5 L15.75,18 C20.013794,18.005127 23.5733643,21.2541504 23.9663086,25.5 L21.75,25.5 C19.6798096,25.5025635 18.0025635,27.1798096 18,29.25 L18,35.25 L1.5,35.25 Z M43.5,41.25 C43.5,42.4925537 42.4925537,43.5 41.25,43.5 L21.75,43.5 C20.5074463,43.5 19.5,42.4925537 19.5,41.25 L19.5,29.25 C19.5,28.0074463 20.5074463,27 21.75,27 L41.25,27 C42.4925537,27 43.5,28.0074463 43.5,29.25 L43.5,41.25 Z" id="Shape"></path>
                    <path d="M31.5,28.5 C31.0858154,28.5 30.75,28.8358154 30.75,29.25 L30.75,41.25 C30.75,41.6641846 31.0858154,42 31.5,42 C31.9141846,42 32.25,41.6641846 32.25,41.25 L32.25,29.25 C32.25,28.8358154 31.9141846,28.5 31.5,28.5 Z" id="Shape"></path>
                    <path d="M37.5,28.5 C37.0858154,28.5 36.75,28.8358154 36.75,29.25 L36.75,41.25 C36.75,41.6641846 37.0858154,42 37.5,42 C37.9141846,42 38.25,41.6641846 38.25,41.25 L38.25,29.25 C38.25,28.8358154 37.9141846,28.5 37.5,28.5 Z" id="Shape"></path>
                    <path d="M25.625,29.625 C25.2798462,29.625 25,29.9048462 25,30.25 L25,40.25 C25,40.5951538 25.2798462,40.875 25.625,40.875 C25.9701538,40.875 26.25,40.5951538 26.25,40.25 L26.25,30.25 C26.25,29.9048462 25.9701538,29.625 25.625,29.625 Z" id="Shape"></path>
                </g>
            </g>
        </g>
    </g>
</svg>